<?xml version="1.0" encoding="UTF-8"?>
<svg xmlns="http://www.w3.org/2000/svg" version="1.1" viewBox="0 0 300 300">
  <defs>
    <style>
      .cls-1 {
        fill: #d25b4f;
      }

      .cls-2 {
        fill: #fec45f;
      }

      .cls-3 {
        fill: #4067d2;
      }
    </style>
  </defs>
  <!-- Generator: Adobe Illustrator 28.6.0, SVG Export Plug-In . SVG Version: 1.2.0 Build 709)  -->
  <g>
    <g id="Layer_1">
      <g>
        <path class="cls-1" d="M1.4,136.7C1.5,72.2,45,17.8,106.4,4.5c35.3-7.6,68.6-1.4,99.2,17.9,4.6,2.9,5.1,5.3,1.9,9.8-23.5,33.1-47,66.3-70.6,99.3-1.6,2.2-2.3,4.5-2.3,7.2,0,40.2,0,80.3,0,120.5,0,.9,0,1.8,0,2.7-.1,4.2-1.9,6.1-6.2,5.9-18.2-.8-35.7-4.9-52-13.2C37,234.8,12.7,203,3.7,159.6c-1.7-8.1-2.4-16.4-2.3-22.9Z"/>
        <path class="cls-2" d="M165.5,232.1c0-19.9,0-39.9,0-59.8,0-5.4,1.3-6.7,6.8-6.7,39.8,0,79.7,0,119.5,0,5.4,0,6.9,1.4,6.6,6.8-1.4,28.9-11.3,54.7-29.5,77.1-21.2,26.1-48.6,41.8-81.6,47.6-5.2.9-10.5,1.5-15.8,1.5-4.3,0-6-1.5-6-5.9,0-20.2,0-40.5,0-60.7Z"/>
        <path class="cls-3" d="M233.7,144.9c-19.2,0-38.4,0-57.7,0-1.8,0-3.6,0-5.1-1.3-2.2-2-2.3-4.6-.1-7.5,9.3-13,18.7-26,28-39,13.3-18.4,26.5-36.9,39.8-55.3,3.2-4.5,5.7-4.9,9.9-1.5,27.1,22.2,43.5,50.5,48.8,85.2.6,4.2,1.1,8.3,1.2,12.5.2,5.3-1.3,6.9-6.6,6.9-19.4,0-38.8,0-58.3,0Z"/>
      </g>
    </g>
  </g>
</svg>
