<?xml version="1.0" encoding="UTF-8"?>
<svg xmlns="http://www.w3.org/2000/svg" version="1.1" viewBox="0 0 60 60">
  <defs>
    <style>
      .cls-1 {
        fill: #e54f38;
      }
    </style>
  </defs>
  <!-- Generator: Adobe Illustrator 28.6.0, SVG Export Plug-In . SVG Version: 1.2.0 Build 709)  -->
  <g>
    <g id="Layer_1">
      <g>
        <path class="cls-1" d="M0,56.4c0-9.2,0-18.4,0-27.6,0,0,0,0,0-.1.8-2.5,2.2-3.6,4.8-3.6,6,0,12,0,17.9,0,2.8,0,4.7,1.8,4.7,4.7,0,2.3,0,4.6,0,7,0,6.2,0,12.5,0,18.7,0,1.9-.8,3.3-2.5,4.2-.4.2-.8.3-1.2.4H3.7c-1.4-.3-2.5-1-3.2-2.3C.3,57.3.2,56.8,0,56.4Z"/>
        <path class="cls-1" d="M0,3.6c0-.2.1-.4.2-.5C.8,1.3,2.4,0,4.3,0c6.3,0,12.6,0,18.9,0,2.4,0,4.3,1.9,4.3,4.3,0,3.8,0,7.5,0,11.3,0,2.5-1.9,4.3-4.4,4.3-6.2,0-12.5,0-18.7,0-2.1,0-3.7-1.4-4.3-3.4,0,0,0-.2-.1-.3C0,12.1,0,7.9,0,3.6Z"/>
        <path class="cls-1" d="M36.2,60c-.3,0-.6-.2-.8-.3-1.7-.6-2.9-2.2-2.9-4.1,0-3.8,0-7.5,0-11.3,0-2.5,2-4.3,4.6-4.3,4.2,0,8.5,0,12.7,0,1.9,0,3.7,0,5.6,0,2.8,0,4.7,1.9,4.7,4.7,0,3.5,0,7,0,10.5,0,2.6-1.1,4.1-3.6,4.8,0,0,0,0-.1,0h-20Z"/>
        <path class="cls-1" d="M60,17.5c0,4.3,0,8.5,0,12.8,0,2.8-1.8,4.7-4.7,4.7-6,0-12.1,0-18.1,0-2.9,0-4.7-1.8-4.7-4.7,0-8.5,0-17,0-25.5,0-2.9,1.8-4.7,4.8-4.7,6,0,12,0,18,0,2.9,0,4.7,1.8,4.7,4.7,0,4.3,0,8.5,0,12.8Z"/>
      </g>
    </g>
  </g>
</svg>
