<?xml version="1.0" encoding="UTF-8"?>
<svg xmlns="http://www.w3.org/2000/svg" version="1.1" viewBox="0 0 60 60">
  <defs>
    <style>
      .cls-1 {
        fill: #e54f38;
      }
    </style>
  </defs>
  <!-- Generator: Adobe Illustrator 28.6.0, SVG Export Plug-In . SVG Version: 1.2.0 Build 709)  -->
  <g>
    <g id="Layer_1">
      <g>
        <path class="cls-1" d="M39.3,48.5c.4,1.7.8,3.3,1.2,5,1.5,0,3,0,4.5,0,.3,0,.6,0,1,0,1.4.1,2.2,1,2.3,2.4,0,1.3-.9,2.4-2.2,2.5-.3,0-.6,0-.8,0-10.2,0-20.4,0-30.6,0-.3,0-.6,0-1,0-1.2-.2-2.1-1.3-2.1-2.5,0-1.3.9-2.3,2.2-2.4,1.7,0,3.4,0,5.1,0,.4,0,.6-.1.7-.6.3-1.5.7-2.9,1.1-4.4-.3,0-.5,0-.8,0-4.1,0-8.3,0-12.4,0-4.4,0-7.4-3-7.4-7.3,0-11,0-22,0-32.9,0-3.9,3.4-7,7-6.7.9,0,1.9,0,2.8,0,14.3,0,28.5,0,42.8,0,3.5,0,6.3,2.2,7.1,5.5.1.5.2,1.1.2,1.7,0,10.9,0,21.8,0,32.6,0,4-3.1,7.1-7.2,7.2-4.2,0-8.4,0-12.7,0-.2,0-.5,0-.8,0ZM54.7,33.6c0-.2,0-.4,0-.6,0-8.1,0-16.2,0-24.3,0-1.5-.9-2.4-2.4-2.4-15,0-29.9,0-44.9,0-1.5,0-2.4.9-2.4,2.4,0,8.1,0,16.2,0,24.3,0,.2,0,.4,0,.7h49.6Z"/>
        <path class="cls-1" d="M47.2,28.6h-9.9c0-2.4-.9-4.5-2.8-6.1-1.4-1.1-3-1.6-4.7-1.6-2.1,0-3.9.7-5.4,2.3-1.4,1.5-2,3.3-2.1,5.4h-9.8c-.5-2.2.3-4,2.7-4,1.3,0,2.5-1.2,2.4-2.5,0-.5-.3-1-.6-1.4-1.5-1.5-1.5-2.7,0-4.2.5-.5,1-1,1.6-1.5.9-.8,2-.8,3-.2.1,0,.3.2.3.3.4.9,1.1,1,1.9.9,1.7-.1,2.3-.8,2.4-2.5,0-1.5,1-2.5,2.6-2.6.7,0,1.4,0,2.1,0,1.5,0,2.4,1,2.5,2.5,0,.3,0,.6,0,.9.2.7.6,1.4,1.4,1.5,1,.2,2,.5,2.8-.7.9-1.3,2.5-1.4,3.7-.3.6.5,1.2,1.1,1.7,1.7,1.1,1.2,1.1,2.5,0,3.6-.6.6-1,1.3-.9,2.2.2,1.1,1.3,2.1,2.5,2.2,1.8.2,2.7,1.1,2.7,3,0,.3,0,.6,0,1Z"/>
      </g>
    </g>
  </g>
</svg>
