<?xml version="1.0" encoding="UTF-8"?>
<svg xmlns="http://www.w3.org/2000/svg" version="1.1" viewBox="0 0 60 60">
  <defs>
    <style>
      .cls-1 {
        fill: #e54f38;
      }
    </style>
  </defs>
  <!-- Generator: Adobe Illustrator 28.6.0, SVG Export Plug-In . SVG Version: 1.2.0 Build 709)  -->
  <g>
    <g id="Layer_1">
      <path class="cls-1" d="M29.9,59.5c-4.4,0-8.8,0-13.1,0-3.4,0-6.5-.8-9.4-2.6-3.9-2.5-5.9-6.1-6.6-10.6-.2-1.4-.3-2.8-.3-4.2,0-8.1,0-16.1,0-24.2,0-2.8.3-5.6,1.5-8.2C4.1,4.7,7.9,2,13,1c1.4-.3,2.9-.4,4.3-.4,8.6,0,17.1,0,25.7,0,2.9,0,5.7.6,8.3,1.9,4.6,2.4,7,6.3,7.8,11.4.2,1.2.3,2.3.3,3.5,0,8.6,0,17.2,0,25.8,0,2.8-.6,5.5-1.8,8.1-2.3,4.7-6.3,7.2-11.3,8-1.4.2-2.9.3-4.3.3-4,0-8,0-12,0,0,0,0,0,0,0ZM34.5,34.7c1.7,0,3-.5,4-1.8,2.4-3,4.7-6,7-9.1.5-.6.5-1.4.3-2.1-.3-.8-.9-1.3-1.7-1.4-.9-.1-1.6.2-2.2.9-2.2,2.8-4.3,5.6-6.5,8.4-.5.7-.9.7-1.5.2-1.7-1.3-3.4-2.7-5.1-4-2.4-1.8-5.4-1.4-7.3.9-.5.6-1,1.3-1.5,2-1.8,2.4-3.6,4.7-5.4,7.1-.9,1.2-.6,2.6.5,3.3,1,.6,2.2.4,3-.7,2.2-2.9,4.4-5.8,6.7-8.7.5-.7.8-.7,1.5-.2,1.7,1.3,3.3,2.6,4.9,3.9,1,.8,2.1,1.2,3.3,1.2Z"/>
    </g>
  </g>
</svg>