<?xml version="1.0" encoding="UTF-8"?>
<svg xmlns="http://www.w3.org/2000/svg" version="1.1" viewBox="0 0 1200 200">
  <defs>
    <style>
      .cls-1 {
        fill: #f9f9f9;
      }

      .cls-2 {
        display: none;
        fill: none;
      }
    </style>
  </defs>
  <!-- Generator: Adobe Illustrator 28.6.0, SVG Export Plug-In . SVG Version: 1.2.0 Build 709)  -->
  <g>
    <g id="_Ñëîé_1" data-name="Ñëîé_1">
      <g>
        <g>
          <path class="cls-1" d="M757.7,253.1c-4.9,1.6-9.7,3-14.6,4.2-13.7,3.3-27.3,4.5-40.3,3.7-9.9-.6-19.4-2.3-29-5.1-8.6-2.5-17.2-6-26.2-10.5-16.8-8.4-32.6-19.3-47.9-29.9-13.8-9.6-28-19.4-43-27.5-69.9-37.4-170.2-36.3-249.8,2.7-79.6,39-137,115.3-142.9,189.9h-.2c1.5-18.5,6-37.3,13.6-55.8,7.4-18.2,17.5-35.9,30.1-52.6,12.6-16.7,27.4-32.2,44-45.9,17-14,35.6-26,55.3-35.7,19.7-9.7,40.9-17.1,62.9-22.3,21.6-5,43.7-7.7,65.7-7.9,22-.2,43.5,2,63.9,6.5,20.8,4.7,40.2,11.7,57.5,21,15,8,29.3,17.9,43.1,27.5,30.5,21.2,62.1,43,103.1,45.5,47.2,2.9,101.6-22.2,145.4-67.1,27-27.7,48.3-59.2,68.8-89.7,16.2-24,32.9-48.9,52.4-71.8,11.4-13.4,24.1-25.8,37.7-37.1,14.5-11.9,29.6-22.1,45-30.3,16.6-8.8,33.3-15.2,49.6-19,17.7-4.1,35.1-5.1,51.6-3.1,17.5,2.2,33.8,7.8,49.6,13.3,6.9,2.4,14,4.8,21.1,7,85.5,25.8,191.8,8.7,270.9-43.7v.2c-23.2,15.4-49.1,27.9-76.5,37.2-18.3,6.2-37.2,10.9-56.6,14-48.3,7.8-96,5.2-137.9-7.5-7.1-2.1-14.2-4.6-21.1-7-15.8-5.5-32.1-11.1-49.5-13.3-71.7-8.9-141.9,40.3-183.8,89.4-19.5,22.9-36.2,47.7-52.4,71.8-20.6,30.5-41.8,62.1-68.8,89.7-19.9,20.4-42.9,37.4-66.5,49.1-8.1,4-16.1,7.4-24.2,10.1Z"/>
          <path class="cls-1" d="M747.1,256.2c-4,1.3-8,2.5-11.9,3.5-13.5,3.5-26.8,5-39.6,4.5-10-.3-19.6-1.7-29.4-4.3-8.8-2.3-17.5-5.5-26.7-9.7-17.1-7.9-33.4-18.4-49.1-28.6-13.2-8.5-26.8-17.3-41-24.7-5.9-3.1-12.2-6-18.6-8.6-63.8-26.2-138.4-28.2-204.1-6-8,2.7-15.8,5.7-23.5,9.1-37.3,16.6-70.7,41.6-96.4,72.4-28.2,34-45.7,73.6-49.2,111.6h-.2c1.8-19.3,7-38.8,15.6-58.1,8.4-18.8,19.7-36.9,33.7-53.7,12.7-15.2,27.3-29.1,43.6-41.3,16.4-12.4,34.2-22.9,52.9-31.2,17.9-7.9,36.9-14,56.7-18.1,19.2-4,38.9-6.1,58.8-6.2,39.2-.3,78.1,7,112.4,21.1,6.4,2.6,12.7,5.5,18.6,8.6,14.2,7.4,27.8,16.2,41,24.7,32.8,21.2,63.8,41.2,105.1,42.5,46.1,1.6,99.6-23.7,143.1-67.8,13.8-14,27.4-30.2,42.9-50.9,8.4-11.3,16.6-22.9,24.6-34.2,16.9-24,34.5-48.8,54.7-71.5,11.5-12.8,24.3-24.8,37.9-35.5,14.5-11.4,29.6-21.1,44.9-28.9,16.5-8.4,33-14.4,49.3-17.9,17.5-3.8,34.7-4.7,51.1-2.6,17.3,2.2,33.4,7.7,49,13,6.8,2.3,13.8,4.7,20.9,6.8,84.8,25.1,190,8.8,268.1-41.5v.2c-22.1,14.3-46.7,26-72.7,34.8-19,6.4-38.8,11.2-59,14.4-47.6,7.3-94.8,4.7-136.4-7.7-7-2.1-14.1-4.5-20.9-6.8-15.6-5.3-31.7-10.8-49-13-70.7-8.9-140.8,38-182.9,84.8-20.3,22.6-37.8,47.4-54.7,71.4-7.9,11.3-16.2,22.9-24.6,34.2-15.4,20.7-29.1,36.9-42.9,50.9-19.9,20.1-42.6,37-65.6,48.7-8.7,4.4-17.5,8.1-26.2,11.1Z"/>
          <path class="cls-1" d="M736.4,259.4c-16.3,5.5-32.4,8.2-47.9,8.1-10.1,0-19.9-1.2-29.9-3.5-8.9-2.1-17.9-5-27.3-9-17.6-7.4-34.4-17.5-50.7-27.3-12.4-7.4-25.1-15.1-38.4-21.7-5.9-3-12.2-5.8-18.6-8.4-73.9-30.2-155.6-32.1-224-5.2-37.6,14.9-71.3,38.5-97.3,68.1-28.9,32.8-47,71.9-51,110h-.3c2-19.3,7.6-38.7,16.4-57.6,8.7-18.6,20.3-36.3,34.6-52.5,12.9-14.7,27.8-28,44.4-39.6,16.6-11.6,34.4-21.2,53.1-28.6,17.7-7,36.5-12.1,55.9-15.2,18.7-3,38-4.2,57.5-3.5,18.9.7,38,3.1,56.8,7.1,18.5,4,36.6,9.6,54,16.7,6.4,2.6,12.7,5.5,18.6,8.4,13.3,6.6,26,14.3,38.4,21.7,33.8,20.3,65.8,39.4,107.8,39.7,16.8.1,32.9-3,48-8.1,43.2-14.5,77.4-45,92.8-60.4,13.7-13.7,26.9-29.1,42.9-49.7,7.8-10.1,15.4-20.4,22.8-30.4,17.8-24,36.2-48.9,57.4-71.4,11.7-12.3,24.5-23.7,38.1-33.8,14.5-10.8,29.5-20,44.7-27.4,16.4-7.9,32.8-13.6,48.9-16.8,17.4-3.5,34.4-4.3,50.6-2.2,17,2.2,33,7.5,48.5,12.6,6.7,2.2,13.7,4.6,20.7,6.6,84.1,24.4,188.2,9,265.3-39.3v.2c-21,13.2-44.3,24.2-68.9,32.4-19.8,6.7-40.5,11.6-61.6,14.7-46.9,6.9-93.6,4.2-134.9-7.8-7-2-13.9-4.3-20.7-6.6-15.4-5.1-31.4-10.4-48.4-12.6-69.7-8.8-139.7,35.7-182.1,80.2-21.2,22.5-39.6,47.3-57.4,71.4-7.4,10-15.1,20.3-22.8,30.4-16,20.7-29.2,36-42.9,49.8-19.8,19.8-42.2,36.5-64.8,48.3-9.5,4.9-18.9,9-28.3,12.1Z"/>
          <path class="cls-1" d="M725.5,262.7c-15.1,5.1-29.9,7.8-44.3,8.1-10.3.2-20.3-.7-30.6-2.7-9.2-1.8-18.4-4.5-28.1-8.3-18.1-7-34.8-16.3-52.5-26.1-11.3-6.3-23-12.8-35.1-18.6-5.9-2.8-12.2-5.6-18.6-8.2-77-31.3-155.3-36.1-220.4-13.5-37.1,12.9-72,35.6-98.3,63.9-29.5,31.8-48.2,70.3-52.8,108.4h-.3c4.5-38.2,23.3-76.7,52.8-108.6,13.2-14.2,28.4-27,45.2-37.9,16.7-10.9,34.6-19.6,53.2-26.1,34.3-11.9,71.8-16.3,111.3-13.2,35.9,2.9,72.7,11.8,109.3,26.7,6.4,2.6,12.7,5.4,18.7,8.2,12.1,5.8,23.8,12.3,35.1,18.6,35.1,19.5,68.3,37.9,111.1,37,44.5-1,95-26.2,138.4-69.1,17.1-17,31.9-34.9,42.9-48.6,7.1-8.9,14.1-17.9,20.9-26.6,18.7-24.2,38.1-49.1,60.4-71.4,11.8-11.7,24.6-22.6,38.2-32.3,14.5-10.3,29.4-19,44.6-25.9,16.3-7.4,32.6-12.7,48.6-15.7,17.2-3.3,34.1-3.9,50.1-1.8,16.8,2.1,32.6,7.3,47.9,12.2,6.7,2.2,13.6,4.4,20.5,6.4,62.3,17.7,133.2,14.7,197.1-6.9,23-7.7,45-17.9,65.4-30.3l.2.3c-20,12.2-42,22.3-65.1,30.1-20.6,7-42.2,12.1-64.2,15.1-46.2,6.4-92.3,3.7-133.5-8-6.9-2-13.8-4.2-20.5-6.4-15.3-5-31.1-10.1-47.8-12.2-69-8.8-138.8,33.3-181.2,75.6-22.3,22.3-41.6,47.2-60.3,71.4-6.8,8.7-13.8,17.8-20.9,26.6-11,13.7-25.8,31.6-43,48.6-19.7,19.5-41.8,36-63.9,47.8-10.2,5.5-20.4,9.9-30.5,13.3Z"/>
          <path class="cls-1" d="M714.5,266c-13.8,4.6-27.3,7.3-40.5,8-44,2.2-78.7-15.6-115.4-34.5-10-5.1-20.4-10.5-30.9-15.4-5.9-2.7-12.2-5.4-18.7-8-82.9-33.4-153.8-40.6-216.8-21.8-37.2,11.1-72.5,32.3-99.2,59.6-30.1,30.8-49.5,68.7-54.5,106.7h-.4c5.1-38.2,24.5-76.1,54.6-107,13.5-13.8,28.9-25.9,46-36.1,16.9-10.1,34.8-18.1,53.4-23.6,17.3-5.2,35.6-8.4,54.4-9.6,17.6-1.1,36-.5,54.9,1.9,17.5,2.2,35.8,6,54.5,11.2,17.1,4.8,35,10.9,53.2,18.3,6.5,2.6,12.8,5.3,18.7,8.1,10.6,4.9,20.9,10.2,30.9,15.4,36.7,18.9,71.4,36.7,115.2,34.4,43.4-2.2,93-27.6,136.1-69.8,16.5-16.2,31-33.1,43-47.5,6.2-7.5,12.4-15.1,18.4-22.4,20.7-25.5,40.3-49.6,63.8-71.8,24.8-23.3,53.4-42.4,82.8-55.1,16.2-7,32.4-11.9,48.2-14.7,17.1-3,33.8-3.5,49.6-1.4,16.6,2.1,32.2,7.1,47.3,11.9,6.6,2.1,13.5,4.3,20.3,6.2,63,17.5,134.6,14.4,198.7-7.2,21.4-7.2,41.9-16.5,61-27.7l.2.3c-18.9,11.1-39.4,20.4-61,27.7-21.5,7.2-44,12.5-67,15.5-45.5,6-91.1,3.1-132-8.2-6.8-1.9-13.7-4.1-20.3-6.2-15.1-4.8-30.8-9.8-47.3-11.9-57.9-7.4-125.3,19.1-180.4,71-23.5,22.2-43.1,46.2-63.8,71.7-6,7.4-12.2,15-18.4,22.4-12,14.4-26.5,31.3-43,47.5-19.6,19.2-41.5,35.6-63,47.4-11.1,6-22,10.9-32.8,14.5Z"/>
          <path class="cls-1" d="M703.3,269.5c-12.4,4.2-24.6,6.8-36.5,7.7-45.5,3.7-82.1-13.7-120.8-32.1-8.3-4-16.9-8-25.6-11.9-5.9-2.6-12.1-5.2-18.7-7.9-63.3-25.4-138.1-48.8-213.1-30.1-37.3,9.3-72.9,28.9-100.2,55.4-30.7,29.8-50.7,67.1-56.3,105.1h-.4c2.8-19.1,9.2-38,19-56.3,9.7-17.9,22.2-34.5,37.4-49.1,27.4-26.5,63-46.2,100.3-55.5,33.1-8.2,68.2-8.9,107.3-2.1,31.2,5.5,64.9,15.7,106.1,32.2,6.6,2.6,12.8,5.3,18.7,7.9,8.7,3.9,17.3,8,25.6,11.9,38.7,18.4,75.2,35.8,120.6,32.1,57.7-4.7,108.6-46.2,133.8-70.5,15.8-15.3,30-31.3,43-46.3,5.2-6,10.3-12,15.3-17.9,22-25.9,42.9-50.3,67.8-72.5,25-22.2,53.6-40.1,82.9-52,16.1-6.5,32.1-11.1,47.8-13.6,16.9-2.7,33.4-3,49.2-1,16.3,2.1,31.8,6.9,46.8,11.5,6.6,2,13.4,4.1,20.1,6,83.4,22.6,181.8,10.1,256.9-32.8l.2.4c-18.9,10.8-39.5,19.8-61.1,26.8-21.1,6.8-43.2,11.7-65.6,14.4-44.7,5.5-89.8,2.6-130.5-8.4-6.8-1.8-13.6-3.9-20.1-6-15-4.6-30.4-9.4-46.7-11.5-57.2-7.4-124.3,17.4-179.5,66.4-24.9,22.1-45.8,46.6-67.8,72.4-5,5.9-10.2,11.9-15.3,17.9-13,15-27.2,31.1-43,46.3-19.6,18.9-41.1,35.2-62.2,47-11.9,6.7-23.7,12-35.3,15.9Z"/>
          <path class="cls-1" d="M691.9,273.2c-11,3.7-21.8,6.2-32.3,7.3-47.5,5.3-86.5-11.9-127.8-30.1-6.1-2.7-12.3-5.5-18.6-8.1-5.8-2.5-11.9-5-18.7-7.7-73.4-29.2-139.8-52.3-209.5-38.4-37.3,7.4-73.2,25.6-101.1,51.1-31.3,28.7-52,65.5-58,103.5h-.4c3-19.1,9.7-37.8,19.9-55.9,10-17.7,22.9-33.9,38.3-48,27.9-25.6,63.9-43.8,101.3-51.2,17.1-3.4,34.4-4.7,52.9-3.9,16.6.7,33.8,3.1,52.3,7.3,35.7,8.1,71.2,21.7,104.6,35,6.8,2.7,12.9,5.2,18.7,7.7,6.3,2.7,12.6,5.5,18.7,8.2,41.2,18.2,80.2,35.4,127.6,30.1,56.1-6.3,106.4-47.3,131.4-71.2,15.7-15,29.8-30.5,43-45.2,3.9-4.3,7.8-8.7,11.6-13,23.6-26.5,45.9-51.4,72.5-73.6,25.2-21,53.9-37.9,82.9-48.9,15.9-6,31.9-10.2,47.5-12.5,16.7-2.4,33.1-2.6,48.7-.6,16.1,2.1,31.4,6.7,46.2,11.2,6.5,2,13.2,4,20,5.8,64.6,17.1,138,13.7,202.2-7.9,18.2-6.1,35.6-13.7,51.9-22.7l.2.4c-18.8,10.4-39.2,19-60.6,25.6-20.9,6.5-42.7,11-64.8,13.6-44,5.1-88.6,2.1-129-8.6-6.7-1.8-13.5-3.8-20-5.8-14.8-4.5-30.1-9.1-46.1-11.2-56.5-7.4-123.3,15.7-178.7,61.8-26.6,22.2-48.9,47.1-72.5,73.6-3.8,4.2-7.7,8.6-11.6,13-13.2,14.7-27.4,30.2-43,45.2-19.8,18.9-40.5,34.6-61.3,46.6-12.9,7.4-25.6,13.2-38.1,17.4Z"/>
          <path class="cls-1" d="M680.3,277c-9.5,3.2-18.8,5.5-27.9,6.8-22.9,3.3-45.3,1.9-70.5-4.6-22.3-5.7-43.8-14.6-66.6-24-3.1-1.3-6.3-2.6-9.4-3.9-6.8-2.8-13.6-5.5-18.7-7.5-5.7-2.2-11.4-4.5-16.9-6.7-63.9-25.5-124.2-49.6-189-40-37.3,5.5-73.5,22.2-102,46.9-31.5,27.3-53.3,64.4-59.8,101.9h-.5c3.3-19,10.3-37.6,20.8-55.4,10.3-17.5,23.5-33.3,39.2-46.8,14.3-12.4,30.6-22.9,48.4-31,17.4-7.9,35.5-13.3,53.8-16,65-9.6,125.4,14.5,189.3,40.1,5.5,2.2,11.2,4.5,16.9,6.7,5.2,2,12,4.8,18.7,7.5,3.2,1.3,6.3,2.6,9.4,3.9,44.6,18.4,86.7,35.8,136.8,28.6,51.6-7.5,98.7-43.2,129.1-71.9,15.6-14.7,30.2-30.3,43-44,2.3-2.5,4.6-5,6.9-7.4,25.4-27.3,49.5-53,78.1-75.3,25.4-19.8,54.1-35.6,82.9-45.8,15.8-5.6,31.7-9.4,47.1-11.4,16.5-2.2,32.8-2.2,48.2-.2,15.8,2.1,31,6.5,45.6,10.8,6.5,1.9,13.1,3.8,19.8,5.6,66.1,17.1,138.8,14,202.9-7.6,16.8-5.7,33-12.6,48.4-20.8l.2.4c-18.7,9.9-38.9,18.2-60.1,24.5-20.6,6.1-42.2,10.4-64,12.8-43.2,4.6-87.3,1.6-127.5-8.8-6.7-1.7-13.3-3.7-19.8-5.6-14.6-4.3-29.8-8.7-45.6-10.8-55.9-7.4-122.4,14-177.9,57.3-28.6,22.3-52.6,48.1-78.1,75.3-2.3,2.5-4.6,4.9-6.9,7.4-12.9,13.8-27.5,29.4-43.1,44.1-19.8,18.7-40.2,34.2-60.5,46.2-13.9,8.2-27.6,14.5-41,19.1Z"/>
          <path class="cls-1" d="M668.4,281c-7.9,2.7-15.6,4.7-23.2,6-12.8,2.3-25.3,3.1-38.3,2.5-11.7-.5-23.6-2.2-36.4-5.1-23-5.2-45.2-13.6-71.8-24.1l-.8-.3c-5.8-2.3-11.9-4.6-18-7-13.2-5.2-26.1-10.6-38.7-15.9-54.8-23-106.6-44.7-163.6-39.2-37.2,3.6-73.8,18.7-102.9,42.6-32.1,26.3-54.5,62.8-61.5,100.2h-.5c3.5-19,10.8-37.4,21.6-55,10.7-17.3,24.2-32.7,40.1-45.7,14.7-12,31.2-21.8,49.3-29.2,17.6-7.2,35.8-11.8,54-13.5,13.8-1.3,27.5-1.2,42,.5,13,1.5,26.3,4.2,40.7,8.3,26.9,7.6,53.3,18.7,81.2,30.4,12.5,5.3,25.5,10.7,38.6,15.9,6.1,2.4,12.1,4.7,18,7l.8.3c45.4,17.8,92.3,36.2,146.2,26.6,49.9-8.9,96.5-44.4,126.8-72.5,13.7-12.8,26.6-26,39.1-38.8,1.3-1.4,2.7-2.7,4-4.1l1.1-1.1c27.7-28.4,53.8-55.2,84.9-77.8,25.6-18.6,54.3-33.3,83-42.7,15.7-5.1,31.4-8.6,46.7-10.3,16.4-1.9,32.4-1.8,47.7.2,15.6,2.1,30.6,6.3,45.1,10.4,6.4,1.8,13,3.7,19.6,5.4,83,20.9,175.8,11.1,248.4-26.2l.2.5c-18.5,9.5-38.6,17.4-59.6,23.3-20.3,5.8-41.6,9.8-63.3,11.9-42.4,4.2-86,1.1-126-9-6.6-1.7-13.2-3.6-19.6-5.4-14.5-4.1-29.4-8.4-45-10.4-56.2-7.5-120.7,11.7-177,52.7-31,22.6-57.2,49.4-84.9,77.8l-1.1,1.1c-1.3,1.4-2.7,2.7-4,4.1-12.5,12.8-25.4,26-39.1,38.8-19.8,18.5-39.9,33.8-59.6,45.8-15,9.1-29.8,16.1-44.2,20.9Z"/>
          <path class="cls-1" d="M1339.6,59.2c-6.5,2.2-13.1,4.2-19.8,6-20.1,5.4-41.1,9.2-62.5,11.1-20.9,1.9-42.2,2-63.2.5-20.9-1.5-41.5-4.8-61.3-9.6-6.5-1.6-13.1-3.4-19.5-5.2-14.3-3.9-29.1-8-44.4-10.1-55.7-7.5-119.9,10.1-176.2,48.1-31.2,21.1-57.8,46.5-86.9,75.1-3.1,3-6.2,6.1-9.3,9.1-10.9,10.7-22.1,21.9-33.9,32.7-19.9,18.2-39.6,33.5-58.8,45.3-22.8,14.1-45,23.6-66,28-24,5.1-48.3,5.3-74.4.6-24.9-4.5-49.4-13-72.1-21.5-6.9-2.6-13-4.9-18.8-7.1-18.8-7.3-36.7-15.5-54.1-23.3-48-21.8-93.3-42.3-144.6-40-36.6,1.6-74.5,15.6-103.9,38.4-32.7,25.3-55.8,61.2-63.3,98.6h-.6c7.6-37.7,30.7-73.7,63.5-99.1,15-11.6,31.8-20.8,50.1-27.5,17.8-6.5,36-10.2,54.1-11,23.5-1,46.9,2.4,73.6,10.9,23.7,7.6,46.8,18,71.3,29.1,17.3,7.9,35.3,16,54.1,23.3,5.8,2.3,11.9,4.6,18.8,7.1,46.6,17.5,92.9,32.2,146.2,20.8,38.6-8.2,80.5-32.9,124.5-73.2,11.7-10.8,23-21.9,33.8-32.6,3-3,6.2-6.1,9.3-9.1,29.1-28.6,55.8-54,87-75.2,25.7-17.4,54.4-31.1,83-39.6,15.6-4.6,31.2-7.7,46.4-9.3,16.2-1.6,32.1-1.4,47.2.6,15.4,2,30.2,6.1,44.5,10.1,6.4,1.8,12.9,3.6,19.4,5.2,82.5,20.2,174.3,11.2,245.6-24.1l.3.5c-12.5,6.2-25.6,11.6-39.2,16.2Z"/>
          <path class="cls-1" d="M1331.4,70.7c-7.8,2.6-15.9,5-24,7.1-19.8,5.1-40.6,8.5-61.7,10.2-20.6,1.7-41.6,1.7-62.4,0-20.5-1.6-40.9-4.8-60.6-9.4-6.5-1.6-13-3.3-19.3-5-14.1-3.8-28.7-7.7-43.8-9.7-34.6-4.7-72.5-.2-109.8,12.3-22.4,7.5-44.5,18-65.5,31.1-30.2,18.9-56,41.3-87.9,71.3-4.9,4.6-10,9.4-14.8,14.1-9.1,8.7-18.6,17.7-28.3,26.6-19.9,18.1-39.4,33.2-57.9,44.9-22.4,14.2-44.1,24-64.5,29.1-24,6-48.3,7.2-74.1,3.8-21.4-2.8-43.8-8.7-72.5-18.9-6.7-2.4-12.8-4.6-18.8-7-23.2-9-44.6-19.6-65.2-29.9-42.7-21.3-83-41.4-129.8-41.7-36.5-.3-74.7,12.1-104.8,34.1-33.3,24.3-57,59.6-65.1,97h-.6c2-9.5,5.1-18.9,9-28,3.9-9,8.7-17.7,14.4-26.1,11.2-16.6,25.7-31.6,41.9-43.4,30.2-22,68.6-34.5,105.2-34.2,47,.4,87.4,20.5,130.1,41.8,20.7,10.3,42.1,21,65.2,29.9,6,2.3,12.2,4.6,18.8,7,44.1,15.8,92.4,28.5,146.3,15.1,37.1-9.2,78.2-34.1,122.1-73.9,9.7-8.8,19.2-17.8,28.3-26.5,4.9-4.6,9.9-9.4,14.8-14.1,12.4-11.7,27.2-25.4,42.7-38.2,15.8-13.1,30.6-23.9,45.3-33.1,25.8-16.2,54.6-28.8,83.1-36.5,32.2-8.7,63.4-11.1,92.7-7.1,15.1,2,29.7,5.9,43.9,9.7,6.3,1.7,12.8,3.4,19.3,5,83.3,19.8,171.8,11.8,242.8-21.9l.3.6c-11,5.2-22.6,9.9-34.5,13.9Z"/>
          <path class="cls-1" d="M1323.3,82.2c-9.2,3.1-18.7,5.8-28.3,8.2-19.6,4.7-40.1,7.9-61,9.4-20.2,1.5-41,1.4-61.6-.3-20.2-1.6-40.4-4.7-59.9-9.2-6.4-1.5-12.9-3.2-19.2-4.8-14-3.6-28.4-7.3-43.2-9.3-55-7.5-118.6,6.7-174.5,38.9-33.9,19.5-62.7,44-88.8,67.4-6.9,6.2-13.9,12.7-20.7,19-7.3,6.7-14.8,13.7-22.4,20.5-20.4,18.2-39,32.8-57,44.5-19.2,12.6-37.9,21.9-55.6,27.9-2.5.8-5,1.6-7.5,2.3-24.1,6.9-48.2,9.2-73.8,7.1-22.1-1.9-46-7.2-72.9-16.3-6.5-2.2-12.8-4.5-18.8-6.8-26.6-10.3-50.4-23.4-73.4-36-38.5-21.2-74.8-41.3-118.1-43.9-36.3-2.2-74.8,8.7-105.7,29.9-33.9,23.3-58.2,58-66.8,95.4l-.7-.2c2.1-9.3,5.3-18.6,9.5-27.7,4.1-8.9,9-17.6,14.8-25.8,11.5-16.4,26.3-31,42.8-42.3,31-21.3,69.7-32.2,106.1-30,43.5,2.7,79.9,22.8,118.4,44,22.9,12.7,46.7,25.8,73.3,36,6,2.3,12.3,4.6,18.8,6.8,56.5,19.2,101.6,22.1,146.3,9.3,36-10.3,75.2-34.7,119.8-74.6,7.6-6.8,15.2-13.8,22.4-20.5,6.8-6.3,13.8-12.8,20.7-19,26.1-23.5,55-48,88.9-67.5,26-15,54.7-26.5,83.1-33.3,31.9-7.7,62.8-9.6,91.9-5.6,14.9,2,29.3,5.7,43.3,9.3,6.3,1.6,12.7,3.3,19.1,4.8,82.9,19.1,170.4,11.9,240-19.7l.3.6c-9.6,4.3-19.5,8.3-29.7,11.7Z"/>
          <path class="cls-1" d="M1315.2,93.8c-28.9,9.7-60,15.7-92.8,17.7-19.9,1.2-40.3,1-60.8-.7-19.8-1.6-39.8-4.7-59.2-9-6.4-1.4-12.8-3-19-4.6-13.8-3.4-28-7-42.6-9-54.7-7.5-118,5-173.7,34.3-28.2,14.8-55.9,34.5-89.8,63.6-9,7.7-18.1,15.9-26.9,23.8-5.3,4.8-10.8,9.7-16.3,14.5-32.8,28.9-71.6,60-112.6,73.8-1.7.6-3.4,1.1-5.1,1.6-24.7,7.4-48.8,10.6-73.6,9.9-23.6-.7-47.5-5.1-73.1-13.3-6.5-2.1-12.8-4.3-18.9-6.6-29.5-11.3-54.8-26.8-79.2-41.8-35-21.5-68.1-41.8-108.6-46.5-36.1-4.2-75,5.2-106.6,25.6-34,21.9-59.6,57-68.6,93.8l-.7-.2c4.5-18.4,13.2-36.7,25.2-53,11.8-16.1,27-30.4,43.7-41.2,16-10.3,33.7-17.8,52.6-22.3,18.2-4.3,37-5.5,54.5-3.5,40.7,4.7,73.8,25,108.9,46.6,24.4,15,49.7,30.5,79.1,41.8,6,2.3,12.4,4.5,18.8,6.6,51.9,16.7,98.4,17.8,146.3,3.5,42.8-12.8,83.4-45.3,117.5-75.3,5.5-4.9,11-9.8,16.3-14.5,8.8-7.9,17.9-16.1,26.9-23.8,16.2-13.9,30.1-25,43.6-34.8,15.8-11.4,30.9-20.9,46.3-29,26.1-13.7,54.8-24.2,83.1-30.2,31.5-6.7,62.1-8.1,91-4.2,14.6,2,28.9,5.5,42.7,9,6.2,1.5,12.6,3.1,19,4.6,83.8,18.7,168.1,12.5,237.2-17.5l.3.7c-8.1,3.5-16.4,6.7-24.9,9.6Z"/>
          <path class="cls-1" d="M1307.4,105.4c-29.9,10.1-62.3,16.1-96.6,17.9-19.5,1-39.7.7-59.9-1.1-19.5-1.7-39.2-4.6-58.6-8.8-6.3-1.4-12.7-2.9-18.9-4.4-13.6-3.3-27.7-6.6-42-8.6-54.6-7.6-117.6,3.3-172.9,29.7-29.2,14-58,33-90.7,59.8-11.2,9.2-22,18.6-33.4,28.6-3.2,2.8-6.5,5.7-9.8,8.6-13.4,11.6-33.7,28.8-55.3,43.8-21.5,14.8-41.1,25.4-60.1,32.4-12.1,4.4-24.4,7.8-36.6,10-12,2.2-24.3,3.4-36.6,3.5-12,.1-24.4-.8-36.7-2.7-12.1-1.9-24.5-4.7-36.9-8.5-6.5-1.9-12.8-4.1-18.9-6.4-31.8-12.1-58-30-83.4-47.3-32.2-22-62.6-42.8-100.8-49.3-35.4-6-75.6,2-107.6,21.4-34.5,20.9-60.8,55.4-70.3,92.1l-.7-.2c4.7-18.3,13.7-36.5,26-52.5,12.2-15.9,27.6-29.8,44.6-40.1,16.1-9.8,34.6-16.8,53.5-20.5,18.4-3.6,37.3-3.9,54.6-1,38.4,6.5,68.9,27.3,101.1,49.4,25.4,17.3,51.6,35.2,83.3,47.3,6.1,2.3,12.4,4.5,18.9,6.4,51.4,15.7,99.3,14.9,146.3-2.3,42.2-15.5,81.9-47.1,115.2-76,3.3-2.9,6.6-5.8,9.8-8.6,11.4-10,22.2-19.4,33.4-28.6,32.8-26.9,61.6-45.9,90.9-59.9,12.8-6.2,26.3-11.6,40-16.1,14.2-4.7,28.7-8.4,43.1-11.1,31.1-5.8,61.4-6.7,90.1-2.7,14.4,2,28.4,5.4,42.1,8.6,6.2,1.5,12.6,3,18.9,4.4,83.6,18.1,166.9,12.6,234.4-15.4l.3.7c-6.5,2.7-13,5.1-19.8,7.4Z"/>
          <path class="cls-1" d="M1299.8,117c-31,10.4-64.7,16.5-100.6,18-37.8,1.6-77.1-1.8-117-10.1-6.3-1.3-12.7-2.8-18.8-4.2-13.4-3.1-27.3-6.3-41.3-8.2-55.4-7.8-116.5,1.2-172,25.1-30.5,13.2-59.6,30.9-91.7,56-13.5,10.6-26.4,21.6-40.1,33.4l-3.1,2.7c-15.9,13.6-34.8,29.4-54.5,43.4-21.1,15-40.3,25.9-58.6,33.4-4.8,1.9-9.5,3.7-14.3,5.3-43.4,14.6-87.9,15.6-132.5,2.8-6.5-1.8-12.8-3.9-18.9-6.2-33.7-12.7-60.5-33-86.3-52.7-29.8-22.7-58-44.1-94.4-52.3-35.1-7.9-75.7-1.5-108.5,17.1-35.1,19.9-62,53.8-72.1,90.5l-.8-.2c5-18.3,14.3-36.3,26.9-52.1,12.5-15.7,28.3-29.1,45.5-38.9,16.4-9.3,35.2-15.8,54.3-18.7,18.7-2.9,37.6-2.3,54.8,1.5,36.5,8.2,64.7,29.7,94.7,52.4,25.8,19.6,52.5,39.9,86.1,52.6,6.1,2.3,12.4,4.4,18.9,6.2,49.3,14.2,98.5,11.4,146.3-8.1,41.1-16.8,79.8-48.4,112.9-76.7l3.1-2.7c13.7-11.7,26.5-22.8,40.1-33.4,32.1-25.1,61.3-42.9,91.8-56.1,26.5-11.4,54.5-19.5,83.2-24,30.7-4.8,60.7-5.2,89.2-1.2,14.1,2,28,5.2,41.4,8.2,6.1,1.4,12.5,2.9,18.8,4.2,59.1,12.3,147.2,20,231.6-13.2l.3.7c-4.8,1.9-9.6,3.6-14.5,5.3Z"/>
          <path class="cls-1" d="M1292.2,128.6c-32,10.8-67.2,16.9-104.7,18.1-36.8,1.2-75.6-2.3-115.5-10.3-6.3-1.3-12.6-2.7-18.7-4-13.2-2.9-26.9-5.9-40.7-7.8-55.6-7.9-116.5-.5-171.2,20.6-31.2,12-61.5,29.1-92.6,52.2-14.6,10.8-28.8,22.7-43.2,34.9-17.9,15.1-35.4,29.7-53.6,43-20.8,15.2-39.5,26.5-57.2,34.5-23.9,10.8-48.3,17.6-72.5,20-25,2.5-50,.5-74.3-6.1-6.5-1.7-12.8-3.8-19-6.1-35.3-13.2-62.2-35.9-88.2-57.8-27.8-23.5-54.1-45.6-88.9-55.4-34.9-9.8-75.8-5-109.4,12.9-35.7,18.9-63.3,52.2-73.8,88.9l-.8-.2c10.6-36.9,38.4-70.4,74.2-89.4,33.8-18,75-22.8,110-12.9,15.9,4.5,31,11.7,47.4,22.8,14.5,9.8,27.8,21,41.8,32.8,25.9,21.9,52.8,44.5,88,57.7,6.1,2.3,12.4,4.3,18.9,6,48.1,13,97.3,8.3,146.3-13.9,40.5-18.4,79.4-51.1,110.6-77.4,14.5-12.2,28.6-24.1,43.3-34.9,31.1-23.1,61.5-40.2,92.8-52.3,26.5-10.2,54.5-17.2,83.3-20.9,30.2-3.8,59.9-3.7,88.4.3,13.8,1.9,27.5,5,40.7,7.9,6.1,1.3,12.4,2.7,18.7,4,84.7,17,163.8,13.2,228.8-11l.3.8c-3,1.1-6.1,2.2-9.1,3.2Z"/>
          <path class="cls-1" d="M1284.8,140.4c-33,11.1-69.6,17.2-108.9,18.1-35.7.8-74-2.7-114-10.5-6.3-1.2-12.6-2.5-18.7-3.8-13-2.7-26.5-5.5-40-7.5-54.8-7.8-115.3-2.1-170.4,16-31.4,10.3-62,26.1-93.5,48.4-15.2,10.7-29.8,22.6-43.3,33.8-2.1,1.8-4.3,3.5-6.4,5.3-32.5,27-66.1,54.9-102,72.9-10.9,5.5-21.9,10-33,13.8-13.1,4.4-26.2,7.6-39.2,9.5-25.6,3.7-50.7,2.6-74.7-3.5-6.5-1.6-12.9-3.6-19-5.9-36.7-13.6-63.4-38.7-89.3-62.8-26.1-24.4-50.7-47.4-84.2-58.7-34.6-11.7-75.8-8.5-110.3,8.6-36.2,17.9-64.5,50.6-75.6,87.3l-.9-.3c5.5-18.1,15.4-35.8,28.7-51.1,13.2-15.2,29.6-27.9,47.3-36.7,17.2-8.5,36.5-13.8,56-15.2,19.1-1.4,38.2.8,55,6.5,15.3,5.2,29.7,13,45.2,24.7,13.7,10.3,26.1,21.9,39.3,34.2,25.8,24.1,52.5,49.1,89,62.7,6.1,2.3,12.5,4.2,18.9,5.9,46.4,11.7,97,4.9,146.3-19.7,35.8-17.9,69.4-45.8,101.9-72.8,2.1-1.8,4.3-3.5,6.4-5.3,13.5-11.2,28-23.1,43.3-33.8,31.6-22.3,62.3-38.1,93.8-48.5,26.8-8.8,54.9-14.7,83.4-17.6,29.9-3,59.3-2.5,87.4,1.5,13.5,1.9,27,4.7,40,7.5,6.1,1.3,12.4,2.6,18.7,3.8,84.4,16.3,159.2,13.7,222.3-7.5,1.2-.4,2.5-.8,3.7-1.3l.3.8c-1.2.4-2.4.8-3.7,1.3Z"/>
          <path class="cls-1" d="M1275.5,152.8c-17.3,5.7-35.8,10.1-54.9,13-17.9,2.7-36.8,4.2-56.3,4.4-34.9.4-71.7-3.1-112.5-10.6-6.3-1.2-12.6-2.4-18.7-3.7-12.8-2.5-26-5.2-39.2-7.1-56.8-8.2-117-4.1-169.6,11.4-33.4,9.9-64.3,24.4-94.5,44.5-16.3,10.9-31.7,23.1-43.3,32.6-5.4,4.4-10.8,8.9-16.1,13.3-28.8,23.8-58.5,48.4-90,65.6-23.8,13-48,21.9-71.9,26.5-26,5-51.3,4.6-75.1-1-6.5-1.5-12.9-3.4-19-5.7-37.8-14-64.2-41.3-89.8-67.7-24.6-25.4-47.8-49.4-80.1-62.2-34.3-13.6-75.9-11.9-111.3,4.4-36.8,17-65.7,49-77.3,85.7l-.9-.3c5.7-18.1,16-35.6,29.6-50.6,13.5-15,30.2-27.3,48.2-35.6,17.5-8.1,37.2-12.7,56.8-13.4,19.4-.7,38.5,2.4,55.2,9,14.6,5.8,28.8,14.5,43.4,26.7,13,10.9,25.2,23.5,37.1,35.7,25.5,26.3,51.8,53.6,89.4,67.5,6.1,2.3,12.5,4.2,18.9,5.7,57.7,13.6,111.4-6.3,146.3-25.4,31.4-17.2,61.1-41.7,89.8-65.5,5.3-4.4,10.8-8.9,16.1-13.3,11.6-9.5,27-21.8,43.3-32.7,30.2-20.2,61.2-34.8,94.7-44.7,26.3-7.8,54.3-12.7,83.4-14.6,29.1-2,58.2-.9,86.6,3.2,13.2,1.9,26.4,4.5,39.2,7.1,6.1,1.2,12.5,2.5,18.7,3.6,87.5,16.2,160.6,14,223.2-6.6l.3.9Z"/>
          <path class="cls-1" d="M1262.6,166.6c-17.2,5.3-35.5,9.3-54.4,11.8-17.6,2.4-36.3,3.5-55.5,3.5-33.5,0-69.8-3.6-111-10.8-6.3-1.1-12.7-2.3-18.9-3.5-12.5-2.4-25.4-4.8-38.3-6.7-58.7-8.5-117-6.2-168.7,6.8-34.4,8.6-65.6,22-95.4,40.7-13.1,8.3-26.9,18.3-43.3,31.5-8.4,6.8-17,13.9-25.3,20.8-25.1,20.9-51.1,42.4-78.5,58.8-23.7,14.2-47.7,24.2-71.5,29.8-26.4,6.2-51.8,6.8-75.5,1.6-6.5-1.4-12.9-3.3-19.1-5.5-17.4-6.4-33.7-16.4-49.9-30.7-14.4-12.7-27.3-27.4-39.8-41.7-22.2-25.3-45.1-51.6-76.6-65.8-34-15.4-75.9-15.4-112.2.2-37.3,16-66.9,47.4-79.1,84l-.9-.3c6-18,16.5-35.4,30.5-50.2,13.9-14.7,30.9-26.6,49.2-34.5,17.9-7.7,37.8-11.7,57.6-11.7,19.6,0,38.7,4,55.3,11.5,14.2,6.4,27.9,15.8,41.8,28.7,12.4,11.5,24,24.6,35.1,37.4,25,28.5,50.8,58,89.3,72.1,6.1,2.2,12.5,4.1,18.9,5.5,44.4,9.7,96.4-1.4,146.3-31.2,27.3-16.3,53.2-37.8,78.3-58.7,8.3-6.9,16.8-14,25.3-20.8,16.5-13.2,30.2-23.3,43.4-31.5,14.9-9.4,30.6-17.6,46.6-24.4,15.7-6.7,32.2-12.2,49.1-16.4,26.1-6.5,54.2-10.4,83.4-11.5,28.3-1,57.1.5,85.7,4.7,12.9,1.9,25.8,4.3,38.3,6.7,6.2,1.2,12.6,2.4,18.9,3.5,89.3,15.8,159.3,14.4,220.4-4.5l.3.9Z"/>
          <path class="cls-1" d="M1249.7,180.3c-33,9.5-68.6,13.8-108.6,13.3-32.4-.4-67.2-3.9-109.5-11-6.5-1.1-13-2.3-19.3-3.4-12.1-2.2-24.7-4.4-37.1-6.2-60.3-8.8-118.3-8.1-167.9,2.2-35.4,7.3-66.9,19.4-96.4,36.9-13.6,8-27.3,17.7-43.3,30.3-11.4,9-22.8,18.6-33.8,27.8-21.7,18.2-44.1,37.1-67.6,52.4-23.5,15.3-47.4,26.4-71.2,33-26.8,7.5-52.3,8.9-75.9,4.1-6.5-1.3-13-3.1-19.1-5.3-9.5-3.5-18.4-8-27.2-13.8-7.8-5.1-15.4-11.2-23.1-18.5-14.3-13.5-26.9-29.4-39.1-44.8-21-26.4-42.7-53.8-73.4-69.5-33.2-17-76.6-18.5-113.1-4.1-37.3,14.8-68.3,46.3-80.8,82.4l-1-.3c6.2-18,17.1-35.2,31.3-49.7,14.2-14.5,31.5-26,50.1-33.4,18.3-7.2,38.5-10.6,58.5-9.9,19.8.8,39,5.6,55.5,14,13.8,7.1,27,17.2,40.4,30.7,11.9,12.1,22.8,25.8,33.3,39.1,24.4,30.7,49.6,62.4,88.9,76.7,6.1,2.2,12.5,4,18.9,5.3,44,8.9,96-4.3,146.3-37,23.4-15.2,45.8-34.1,67.5-52.3,11-9.3,22.4-18.9,33.8-27.9,16-12.7,29.8-22.3,43.4-30.4,14.9-8.8,30.7-16.5,47.1-22.7,15.7-6,32.4-10.8,49.6-14.4,25.8-5.4,53.9-8.2,83.4-8.4,27.3-.2,55.9,1.9,84.9,6.1,12.4,1.8,25,4.1,37.2,6.2,6.3,1.1,12.8,2.3,19.3,3.4,61.4,10.4,141.7,19.5,217.7-2.3l.3,1Z"/>
          <path class="cls-1" d="M1236.7,194c-32.5,8.6-67.6,12.3-107.3,11.3-39.6-.9-78.5-6.5-108-11.2-6.8-1.1-13.7-2.3-20.4-3.4-11.6-1.9-23.5-3.9-35.3-5.7-64.1-9.5-118.8-10.3-167.1-2.4-36.4,6-68.2,16.9-97.3,33.1-13.7,7.7-27.9,17.2-43.3,29.2-14.2,11-28.1,23-41.6,34.5-18.5,15.9-37.6,32.3-57.5,46.4-22.1,15.6-45.6,27.8-68.3,35.4-.9.3-1.7.6-2.6.8-27.2,8.8-52.8,11-76.3,6.7-6.6-1.2-13-2.9-19.1-5.2-9.7-3.5-18.7-8.2-27.5-14.2-7.8-5.4-15.3-11.8-22.9-19.5-14.1-14.3-26.3-31.3-38.2-47.8-20-27.6-40.6-56.2-70.6-73.4-32-18.3-74.2-21.8-111.1-9.3-1,.3-2,.7-3,1-37.9,13.9-69.5,44.8-82.6,80.8l-1-.4c6.5-17.9,17.6-34.9,32.2-49.2,14.6-14.2,32.2-25.4,51-32.3,18.7-6.8,39.2-9.6,59.3-8.1,20.1,1.5,39.3,7.2,55.6,16.5,13.5,7.8,26.3,18.5,39.2,32.8,11.4,12.7,21.7,27.1,31.7,40.9,23.6,32.7,48.1,66.6,88.1,81.1,6.1,2.2,12.5,3.9,19,5.1,59.1,10.9,117-22.1,146.3-42.8,19.9-14,39-30.4,57.4-46.3,13.5-11.6,27.4-23.6,41.6-34.6,15.5-12,29.7-21.6,43.5-29.3,14.9-8.3,30.9-15.3,47.6-20.9,15.7-5.3,32.6-9.4,50.1-12.3,25.6-4.2,53.7-5.9,83.5-5.2,26.1.6,54.3,3.2,84,7.6,11.8,1.7,23.7,3.7,35.3,5.7,6.7,1.1,13.6,2.3,20.4,3.4,69.3,11.1,143.3,18.8,214.9-.1l.3,1Z"/>
          <path class="cls-1" d="M1223.8,207.7c-18.8,4.5-38.1,7.4-59.1,8.8-18.6,1.2-38.1,1.2-59.5,0-39.7-2.3-79.9-8.6-118.8-14.6-9.9-1.5-20.1-3.1-30.1-4.6-72.8-10.9-155-17.8-228,6.8-12.5,4.2-24.7,9.3-36.6,15.5-34.3,17.9-63.5,43.8-91.8,68.8-15.5,13.7-31.5,27.9-48.3,40.7-26,19.8-53.7,34.6-80.3,42.9-15,4.6-29.7,7.2-43.5,7.5-15.1.4-29.4-1.8-42.5-6.6-9.8-3.5-18.9-8.3-27.6-14.6-7.8-5.6-15.2-12.3-22.7-20.4-13.8-15.1-25.7-33.2-37.2-50.7-19-28.9-38.6-58.8-68-77.4-32.5-20.6-76.6-25.4-114.9-12.5,0,0-.2,0-.3,0-38.3,12.9-70.4,43.2-84,79.1l-1-.4c6.8-17.9,18.2-34.7,33.1-48.7,14.9-14,32.8-24.8,51.9-31.1,19-6.4,39.8-8.6,60.2-6.3,20.3,2.2,39.6,8.8,55.7,19,29.6,18.8,49.3,48.8,68.4,77.8,23.9,36.4,46.4,70.7,87,85.3,66.4,23.9,137.7-22.6,165.3-43.6,16.7-12.8,32.7-26.9,48.2-40.7,28.3-25.1,57.6-51,92-69,19.2-10,40.4-17.8,63-23.1,20.5-4.8,42.9-7.8,66.7-8.8,49.2-2.2,98.3,3.9,135.5,9.5,10,1.5,20.3,3.1,30.1,4.6,78,12.2,158.8,24.8,236.9,5.9l.3,1.1Z"/>
        </g>
        <g>
          <path class="cls-1" d="M617.2,33.5c14.2-6,28.3-9.6,42.2-10.7,19.6-1.5,40,1.8,60.5,10,17.1,6.8,34.8,17.1,52.5,30.5,12.1,9.2,23.7,19.2,35,29,18.2,15.8,37.1,32.1,58.2,44.9,60.3,36.6,141.8,44,212.7,19.4,70.9-24.6,131.2-81.2,157.3-147.8l1,.4c-12.9,32.9-34.3,64.1-62,90.1-27.7,26-60.8,46.2-95.9,58.3-35.1,12.2-73.4,16.8-110.8,13.4-37.4-3.4-73-14.8-102.8-32.9-21.3-12.9-40.1-29.2-58.4-45.1-11.2-9.7-22.8-19.8-34.9-28.9-38.8-29.5-76.6-43.1-112.3-40.3-40.9,3.2-75.1,27-96.7,46.5-21.5,19.5-39.7,42.4-57.3,64.5-4.4,5.5-8.9,11.2-13.3,16.7-52.3,64.6-113.2,123.6-181.1,175.3-67.9,51.7-141.6,95.4-219.3,129.9l-.5-1c156.4-69.4,294.7-174.8,399.9-304.8,4.5-5.5,9-11.2,13.3-16.7,17.6-22.2,35.8-45.2,57.4-64.7,14.4-13,29.6-23.6,45.2-31.5,3.3-1.7,6.7-3.2,10-4.6Z"/>
          <path class="cls-1" d="M628.2,39.5c12.2-5.2,25.5-9,39.4-10.5,15.1-1.6,30.8-.4,46.6,3.6,11.2,2.8,22.7,7.1,34.3,12.8,10.1,5,20.6,11.1,31,18.3,12.3,8.5,24.2,17.8,35.8,26.8,18.1,14.1,36.8,28.7,57.7,40.6,59.7,33.9,138.9,40.5,206.9,17.3,68.9-23.5,128-77.2,154.2-140.1l1,.4c-13,31.1-34.2,60.6-61.2,85.2-27.1,24.7-59.5,43.9-93.6,55.5-17.1,5.9-35.1,9.9-53.4,12.1-17.9,2.1-36.2,2.4-54.2.8-36.1-3.1-70.7-13.6-100.2-30.3-20.9-11.9-39.7-26.5-57.8-40.7-11.5-9-23.4-18.3-35.7-26.7-22.2-15.2-44.1-25.6-65-30.9-15.7-4-31.2-5.2-46.2-3.6-40.2,4.3-74.4,28.3-96,47.6-8.3,7.4-16.7,15.8-25.7,25.7-10.5,11.5-20.7,23.7-30.5,35.5-5.1,6.1-10.3,12.4-15.6,18.6-26.2,30.7-54.6,59.9-84.5,86.8-33.1,29.7-68.8,57.6-109.2,85.4-32.4,22.3-66.7,43.7-102,63.7-35.1,19.8-71.5,38.4-108.3,55.3l-.4-1c74.4-34.1,145.1-74.1,210.2-118.9,40.4-27.7,76.1-55.6,109.1-85.3,29.8-26.9,58.2-56,84.4-86.7,5.2-6.1,10.5-12.5,15.5-18.6,9.8-11.8,19.9-24,30.5-35.6,9-9.9,17.5-18.3,25.8-25.8,14.2-12.7,33.9-27.5,57.2-37.3Z"/>
          <path class="cls-1" d="M639.4,45.3c11.4-4.8,23.6-8.5,36.3-10.3,14.9-2,30.4-1.4,46,1.8,20.9,4.3,42.1,13.2,64.8,27,12.7,7.8,25,16.4,37,24.7,17.9,12.4,36.3,25.3,56.7,36,59.9,31.7,135.1,37.3,201.1,15.2,6.3-2.1,12.5-4.5,18.6-7,58.9-25,108.7-71.7,132.7-125.4l.9.4c-13.1,29.3-34,57-60.5,80.3-26.6,23.3-58.2,41.6-91.4,52.7-16.6,5.6-34.1,9.5-51.9,11.5-17.4,2-35,2.3-52.6.9-34.8-2.8-68.5-12.4-97.5-27.7-20.4-10.8-38.9-23.6-56.8-36.1-11.9-8.3-24.3-16.9-36.9-24.7-22.6-13.8-43.6-22.6-64.5-26.9-15.5-3.2-30.8-3.8-45.6-1.8-39.5,5.5-73.6,29.5-95.3,48.7-8.3,7.3-16.8,15.7-25.9,25.4-9.9,10.6-19.5,21.6-28.8,32.3-5.9,6.8-12,13.8-18.1,20.6-26.9,30-55.9,57.9-86.2,83-32,26.5-67.1,51.5-110.3,78.7-32.3,20.4-66.9,40.7-102.9,60.3-35,19.1-71.4,37.6-108.3,55.1l-.4-.9c75.6-35.8,146.6-74.7,211-115.4,43.2-27.2,78.2-52.2,110.2-78.6,30.2-25.1,59.2-53,86.1-82.9,6.1-6.8,12.2-13.8,18.1-20.6,9.3-10.7,18.9-21.8,28.8-32.4,9.2-9.8,17.7-18.1,26-25.5,14.8-13.1,35.4-28.5,59.5-38.7Z"/>
          <path class="cls-1" d="M650.8,51c11.2-4.8,22.3-8.1,33.2-9.9,14.7-2.5,29.9-2.5,45.4,0,20.6,3.3,41.6,10.8,64.3,23,13.3,7.2,26.3,15.1,38.9,22.8,17.4,10.7,35.4,21.7,55,31.3,59.3,28.9,132.3,33.8,195.3,13,64.7-21.3,121.5-69.1,148.2-124.7l.9.4c-13.2,27.4-33.8,53.5-59.7,75.4-26.1,22-56.9,39.3-89.1,49.9-16.1,5.3-33.1,9-50.4,11-16.8,1.9-33.9,2.3-50.9,1-33.4-2.5-66.2-11.2-94.8-25.1-19.7-9.6-37.7-20.6-55.1-31.3-12.6-7.7-25.6-15.7-38.8-22.8-22.6-12.1-43.5-19.6-63.9-22.9-15.3-2.4-30.5-2.4-45,0-30.7,5.2-63.4,22.5-94.7,49.9-8.3,7.2-16.8,15.5-26.1,25.1-9.1,9.5-18.1,19.4-26.8,28.9-6.8,7.5-13.9,15.4-21,22.9-27.7,29.3-57.3,56-87.9,79.3-38.9,29.5-78.2,52.9-111.4,72-61.7,35.6-133,73.2-211.9,111.8l-.4-.9c78.9-38.7,150.2-76.3,211.9-111.8,33.2-19.1,72.4-42.6,111.3-72,30.6-23.3,60.2-49.9,87.8-79.2,7.1-7.5,14.1-15.3,21-22.8,8.7-9.6,17.6-19.5,26.8-29,9.4-9.7,17.9-17.9,26.2-25.2,14.7-12.8,29.7-23.5,44.7-31.8,5.8-3.2,11.5-6,17.2-8.4Z"/>
          <path class="cls-1" d="M662.5,56.5c10.1-4.3,20-7.4,29.7-9.4,14.4-2.9,29.5-3.5,44.7-1.8,20.4,2.3,41.2,8.5,63.7,19,14.5,6.7,28.1,13.9,42.4,21.6,16.4,8.7,33.4,17.7,51.7,25.9,58.7,26.2,129.6,30.3,189.6,10.9,7.4-2.4,14.6-5.1,21.8-8.1,53.6-22.7,99.7-63,123.4-108.9l.8.4c-13.2,25.6-33.6,50-58.9,70.5-25.6,20.7-55.6,37-86.8,47-15.6,5-32,8.6-48.8,10.5-16.2,1.9-32.8,2.2-49.3,1.1-32.1-2.2-63.9-10-92.1-22.5-18.3-8.2-35.3-17.2-51.7-25.9-14.4-7.6-28-14.9-42.4-21.6-22.4-10.4-43.2-16.6-63.4-18.9-15.1-1.7-30.1-1-44.4,1.8-30.5,6.2-62.1,23.4-94,51-8.2,7.1-16.8,15.3-26.4,24.8-8.3,8.3-16.4,17-24.3,25.3-7.9,8.4-16.1,17-24.3,25.3-28.5,28.6-58.6,54-89.7,75.5-37.6,25.9-76.2,46.5-112.5,65.4-53,27.7-111.4,57.1-167.8,85.6-14.7,7.4-30,15.1-44.9,22.7l-.4-.8c14.9-7.5,30.1-15.2,44.9-22.7,56.4-28.5,114.8-57.9,167.8-85.6,36.3-18.9,74.9-39.5,112.4-65.3,31-21.5,61.1-46.9,89.5-75.4,8.2-8.3,16.4-16.9,24.3-25.3,7.9-8.4,16.1-17,24.3-25.3,9.5-9.6,18.2-17.8,26.4-24.9,14.7-12.8,29.7-23.5,44.6-31.9,6.7-3.8,13.5-7.1,20.1-9.9Z"/>
          <path class="cls-1" d="M674.4,61.9c8.8-3.7,17.4-6.6,26-8.6,14.2-3.3,29.1-4.5,44.1-3.7,20.1,1.3,40.7,6.1,63.2,14.9,16.4,6.4,31.8,13.4,48.2,20.8,14.7,6.6,29.9,13.5,46.1,20.1,59,23.8,126,27,183.8,8.8,60.6-19.1,115-61,142.2-109.4l.8.4c-13.3,23.8-33.4,46.5-58.1,65.6-25,19.4-54.3,34.7-84.5,44.2-15.1,4.8-31,8.1-47.3,10-15.6,1.8-31.7,2.2-47.7,1.2-30.7-1.8-61.6-8.8-89.3-20-16.2-6.6-31.4-13.4-46.1-20.1-16.4-7.4-31.9-14.4-48.2-20.8-22.4-8.7-43-13.6-62.9-14.9-14.9-.9-29.7.3-43.8,3.6-29.9,7.1-61.3,24.6-93.3,52.2-8.2,7.1-16.7,14.9-26.6,24.6-7.2,7.1-14.4,14.4-21.4,21.5-9.2,9.3-18.6,18.9-28.1,28-29.6,28.1-60.3,52.3-91.4,71.8-35.9,22.5-72.4,39.5-111,57.5l-2.7,1.2c-85.3,39.9-153.1,73.2-213.5,104.7l-.4-.8c60.3-31.5,128.2-64.8,213.5-104.7l2.7-1.2c38.6-18,75-34.9,110.9-57.4,31.1-19.5,61.8-43.6,91.3-71.7,9.5-9.1,18.9-18.7,28.1-27.9,7-7.1,14.2-14.4,21.4-21.5,9.9-9.7,18.3-17.5,26.6-24.6,23-19.7,45.7-34.4,67.7-43.7Z"/>
          <path class="cls-1" d="M686.9,66.9c7.4-3.1,14.6-5.7,21.8-7.6,13.9-3.7,28.5-5.6,43.5-5.5,19.8.2,40.3,3.8,62.7,10.9,20.4,6.4,39.9,13.8,60.5,21.6,10.9,4.1,22.2,8.4,34.1,12.7,58.4,21.1,123.3,23.5,178,6.6,58.4-18,111.7-56.9,139.1-101.7l.7.4c-13.4,21.9-33.3,42.9-57.3,60.7-24.5,18.1-53,32.4-82.3,41.4-28.6,8.8-59.6,12.5-91.9,10.8-29.3-1.5-59.2-7.6-86.6-17.4-11.8-4.3-23.1-8.6-34.1-12.7-20.6-7.8-40.1-15.2-60.4-21.6-22.3-7-42.7-10.6-62.4-10.8-14.9-.1-29.4,1.7-43.2,5.4-29.1,7.9-60.3,25.8-92.6,53.3-8.1,6.9-16.6,14.6-26.8,24.3-6,5.8-12.1,11.6-17.9,17.3-10.6,10.3-21.5,21-32.5,30.9-30.4,27.4-61.7,50.3-93.2,68-32.5,18.3-65,31.6-99.4,45.7-5,2.1-10.2,4.2-15.4,6.3-52.8,21.9-132.8,57.3-214.3,101.1l-.4-.7c81.5-43.9,161.6-79.2,214.3-101.2,5.2-2.1,10.4-4.3,15.4-6.3,34.4-14.1,66.8-27.4,99.3-45.7,31.4-17.7,62.7-40.5,93-67.9,11-10,21.9-20.6,32.5-30.9,5.8-5.7,11.9-11.6,17.9-17.3,10.1-9.7,18.7-17.4,26.8-24.3,24.5-20.8,48.4-36.2,71.2-45.9Z"/>
          <path class="cls-1" d="M699.5,71.7c5.9-2.5,11.7-4.6,17.3-6.3,13.8-4.2,28.2-6.6,42.8-7.3,19.3-.8,39.7,1.4,62.1,6.8,32.1,7.7,62.5,17.4,94.8,27.7,57.8,18.4,120.6,20,172.2,4.5,57.1-17.1,108-52.3,136.1-94l.7.4c-13.5,20.1-33.1,39.4-56.6,55.8-24,16.7-51.7,30.1-80,38.6-27.5,8.3-57.4,11.8-88.9,10.4-27.9-1.2-56.9-6.4-83.8-14.9-32.2-10.2-62.7-19.9-94.7-27.6-22.4-5.4-42.7-7.6-61.9-6.8-14.6.6-28.9,3-42.6,7.2-28.8,8.8-58.9,26.6-91.9,54.4-8.1,6.8-16.4,14.2-27,24-4.6,4.3-9.3,8.7-13.8,12.9-12.2,11.4-24.8,23.3-37.5,34.2-31.2,26.7-63.1,48.3-94.9,64.3-30.2,15.2-60,25.7-91.5,36.7-7.9,2.8-16.1,5.7-24.4,8.6-24.5,8.9-49.4,18.7-74.1,29.2-49.1,20.8-97.5,44.2-140.9,68.4l-.4-.7c33.8-18.8,70.2-37,108.2-54.1,35.6-16,71.6-30.7,106.9-43.5,8.2-3,16.4-5.8,24.4-8.6,31.5-11.1,61.3-21.5,91.5-36.7,31.7-16,63.6-37.5,94.7-64.2,12.7-10.9,25.3-22.7,37.5-34.2,4.5-4.2,9.2-8.6,13.8-12.9,10.6-9.8,18.9-17.2,27-24,15.1-12.7,30-23.6,44.1-32.3,10.4-6.4,20.7-11.7,30.8-16Z"/>
          <path class="cls-1" d="M712.6,76.3c4.2-1.8,8.4-3.4,12.5-4.8,13.5-4.6,27.7-7.7,42.2-9.1,19.1-1.8,39.2-.9,61.6,2.8,31.2,5.2,61.4,11.9,95,21,33.7,9.2,100.1,21.8,166.4,2.4,54.9-16,104.7-48.3,133.1-86.3l.6.5c-13.7,18.3-32.9,35.9-55.8,50.9-23.5,15.4-50.4,27.8-77.7,35.7-26.3,7.7-55.2,11.1-85.8,10.1-26.8-.9-54.1-5.1-81-12.4-33.6-9.2-63.8-15.9-94.9-21-22.3-3.7-42.4-4.6-61.4-2.8-14.4,1.4-28.5,4.4-42,9-28,9.6-57.9,27.8-91.3,55.6-10,8.3-19.3,16.7-27.2,23.7-3,2.7-6,5.4-8.9,8.1-14,12.7-28.5,25.9-43.2,37.8-32,25.9-64.5,46.3-96.7,60.5-28.6,12.7-56.5,20.8-86.1,29.5-10,2.9-20.4,6-30.9,9.2-33.1,10.4-67,22.9-100.3,37-40.2,17-79.4,36.4-115.6,57l-.4-.7c66.1-37.8,142.8-71.2,216-94.1,10.5-3.2,20.9-6.3,30.9-9.2,29.5-8.6,57.4-16.8,86-29.4,32.1-14.2,64.6-34.6,96.5-60.4,14.7-11.9,29.2-25.1,43.2-37.8,2.9-2.6,5.9-5.4,8.9-8.1,7.9-7.1,17.3-15.4,27.2-23.8,28.5-23.8,54.5-40.5,79-50.9Z"/>
          <path class="cls-1" d="M726.4,80.3c2.3-1,4.6-1.9,6.9-2.8,13.3-5.1,27.3-8.7,41.6-10.9,18.8-2.8,38.8-3.2,61.1-1.2,26.1,2.3,57.8,5.9,95.2,14.4,40.8,9.3,101.8,16.9,160.6.2,52.7-14.8,101.3-44.2,130.1-78.6l.5.5c-13.8,16.5-32.8,32.3-55,45.9-23,14.1-49.1,25.5-75.4,32.9-58.9,16.7-120.1,9.1-161-.2-37.4-8.5-69.1-12.1-95.1-14.4-22.2-2-42.2-1.6-60.9,1.2-14.2,2.1-28.1,5.8-41.4,10.8-27.2,10.3-56.8,28.9-90.6,56.7-8.8,7.3-17.4,14.7-27.4,23.5l-3.2,2.8c-16.1,14.2-32.8,28.8-49.8,41.9-32.8,25.1-65.9,44.2-98.4,56.8-27.5,10.6-54.1,16.8-82.2,23.3-11.7,2.7-23.7,5.5-35.9,8.7-73.3,19.2-150.2,51.3-216.6,90.4l-.4-.6c33.6-19.8,70-37.9,108.2-53.7,36.6-15.2,73.2-27.6,108.6-36.8,12.2-3.2,24.3-6,36-8.7,28.1-6.5,54.6-12.7,82.1-23.3,32.4-12.5,65.5-31.6,98.2-56.7,16.9-13.1,33.6-27.7,49.8-41.9l3.2-2.8c10.1-8.8,18.6-16.2,27.4-23.5,15.7-13,30-23.6,43.8-32.5,13.8-8.9,27.3-16.2,40.1-21.6Z"/>
          <path class="cls-1" d="M740.6,84c.3-.1.6-.2.9-.4,13.1-5.5,26.9-9.8,40.9-12.7,18.6-3.9,38.4-5.6,60.6-5.3,28.8.4,59.8,1.3,95.5,7.8,59,10.7,111.1,10.1,154.8-1.9,50.3-13.7,97.8-40.2,127.1-71l.5.5c-13.9,14.6-32.7,28.8-54.2,41-22.5,12.8-47.8,23.2-73.2,30.1-43.8,12-96,12.7-155.1,1.9-35.6-6.5-66.6-7.4-95.3-7.8-22.1-.3-41.8,1.4-60.4,5.3-14,2.9-27.7,7.1-40.8,12.6-26.7,11.2-55.2,29.5-89.9,57.8-9.4,7.6-18.6,15.5-27.6,23.2h0c-18.8,16.1-35.9,30.4-53.9,43.6-33.6,24.3-67.3,42.2-100.1,53-26.7,8.8-52.3,13.3-79.4,18-12.9,2.2-26.3,4.6-39.9,7.4-72.6,15.4-151.8,47.1-217.4,86.9l-.3-.6c28.5-17.3,59.1-32.9,91.3-46.5,5.6-2.4,11.2-4.7,16.9-6.9,37-14.7,73.9-25.9,109.4-33.5,13.6-2.8,27-5.2,39.9-7.4,27.1-4.7,52.6-9.1,79.3-17.9,32.8-10.8,66.4-28.6,99.9-52.9,18-13.1,35-27.5,53.9-43.5h0c9-7.6,18.2-15.5,27.6-23.2,34.3-28,62.7-46.3,89.2-57.6Z"/>
          <path class="cls-1" d="M756.3,86.8c10.9-4.6,22.2-8.5,33.7-11.5,18.4-4.9,38.1-7.9,60-9.3,33.6-2.1,62-3.3,95.7,1.2,60.5,8.1,107.8,6.8,149-4.1,47.8-12.5,94.2-36.2,124-63.3l.4.5c-14.1,12.8-32.6,25.3-53.4,36.1-22.1,11.5-46.6,20.9-70.9,27.3-22.9,6-48.7,9.2-76.8,9.3-22,0-45.7-1.6-72.5-5.2-33.7-4.5-62-3.3-95.5-1.2-21.9,1.4-41.5,4.4-59.9,9.3-13.8,3.7-27.3,8.5-40.2,14.4-33.2,15.3-65.1,39.5-89.2,59-7.3,5.9-14.7,12-21.8,17.9-2,1.7-4,3.3-6,5-17.3,14.3-35.8,29.3-54.8,42.4-16.6,11.4-33.5,21.3-50.1,29.4-17.5,8.5-34.9,15.2-51.8,19.9-26.2,7.2-51,10.1-77.4,13.1-13.9,1.6-28.3,3.2-43,5.6-73,11.9-152.5,42.3-218.2,83.3l-.3-.5c26.5-16.5,55.2-31.4,84.8-43.9,44-18.6,89.9-32.4,133.6-39.5,14.7-2.4,29.1-4,43-5.6,26.3-3,51.2-5.9,77.3-13.1,33.2-9.1,67.4-25.7,101.7-49.2,18.9-13,37.5-28,54.7-42.3,2-1.7,4-3.3,6-5,7.1-5.9,14.5-12,21.8-17.9,24.1-19.5,56-43.8,89.3-59.1,2.2-1,4.4-2,6.6-2.9Z"/>
          <path class="cls-1" d="M221.2,315.1c9.4-4,18.9-7.7,28.5-11.2,37.3-13.4,75.7-22.7,111.1-26.8,15.6-1.8,30.8-2.6,45.6-3.4,25.8-1.5,50.1-2.8,75.8-8.6,33.5-7.5,68.3-22.8,103.4-45.4,20.5-13.3,39.6-28.3,55.6-41.1,4.3-3.4,8.6-7,12.8-10.4,5-4,10.1-8.2,15.2-12.3,26.2-20.9,57.1-44.4,88.6-60.2,12.7-6.4,26.1-11.8,39.7-16.3,18.3-6,37.8-10.3,59.5-13.3,29.8-4.1,60.7-8.4,95.9-5.4,44,3.7,95.3,5.9,143.2-6.2,45.2-11.3,90.4-32.1,121-55.6l.4.5c-14.3,11-32.5,21.8-52.6,31.2-22,10.3-45.1,18.6-68.6,24.4-48,12.1-99.4,9.9-143.4,6.2-35.1-3-65.9,1.3-95.8,5.4-21.7,3-41.1,7.4-59.4,13.3-13.6,4.4-26.9,9.9-39.6,16.2-31.4,15.7-62.4,39.2-88.5,60.1-5.1,4.1-10.2,8.2-15.2,12.3-4.2,3.4-8.6,6.9-12.8,10.4-16,12.9-35.2,27.9-55.6,41.2-17,10.9-34.1,20.3-51,27.8-17.8,7.9-35.5,13.9-52.6,17.7-25.8,5.8-50.2,7.1-75.9,8.6-14.7.8-30,1.7-45.6,3.4-73.5,8.5-153.3,37.5-219,79.8l-.3-.5c16.5-10.6,34.2-20.6,52.6-29.6,8.8-4.3,17.9-8.4,27-12.3Z"/>
          <path class="cls-1" d="M221.5,308.4c10.7-4.5,21.5-8.7,32.5-12.5,37.6-12.9,76.3-21,111.9-23.4,16.3-1.1,32.3-1,47.7-1,25.4,0,49.3,0,74.8-4.3,33.9-5.8,69.3-19.8,105.2-41.7,16.8-10.3,34.8-23,56.5-40,6.8-5.3,13.8-10.8,20.5-16.2,2.6-2.1,5.2-4.1,7.8-6.2,26.4-20.9,57.1-44.6,87.9-61.3,12.5-6.8,25.7-12.9,39-18.1,18.3-7.1,37.6-12.8,59-17.4l1.4-.3c14.8-3.2,30.1-6.5,45.6-8.7,17.4-2.5,33.5-3.5,49-3,38,1.3,90,3.1,137.5-8.3,42.1-10,86.2-28,118-47.9l.3.5c-14.7,9.2-32.6,18.3-51.8,26.3-21.6,9-44,16.3-66.3,21.6-20.8,5-44,7.9-70.8,8.9-24.3.9-48.9,0-66.7-.6-34.6-1.2-63.7,5.1-94.5,11.7l-1.4.3c-21.3,4.6-40.6,10.3-58.9,17.3-13.3,5.2-26.4,11.2-39,18-30.7,16.7-61.4,40.4-87.8,61.2-2.6,2.1-5.2,4.1-7.8,6.2-6.7,5.3-13.6,10.8-20.5,16.2-21.7,17-39.7,29.7-56.5,40-17.3,10.5-34.8,19.4-52,26.3-18.1,7.3-36.1,12.5-53.4,15.5-25.6,4.4-49.5,4.4-74.9,4.3-15.4,0-31.3,0-47.7,1-73,4.9-155.1,33.4-219.8,76.2l-.3-.4c16.4-10.8,34-20.9,52.4-29.8,7.6-3.7,15.4-7.2,23.2-10.6Z"/>
          <path class="cls-1" d="M222.4,301.2c11.7-5,23.6-9.4,35.7-13.4,38-12.4,76.9-19.3,112.7-20.1,17-.3,33.5.6,49.5,1.6,25.1,1.5,48.8,2.8,74.2-.3,34.3-4.2,70.2-16.9,106.9-37.9,17.7-10.2,35.9-22.5,57.3-38.8,9.7-7.4,19.7-15.2,28.5-22,26.8-21,57.2-44.8,87.2-62.4,12.4-7.3,25.3-14,38.4-19.9,18.4-8.3,37.5-15.3,58.4-21.4l2-.6c29.3-8.6,59.6-17.4,94.3-18.1,4.1,0,8.3-.1,12.7-.2,37.1-.6,79.1-1.2,118.9-10.3,55-12.4,98.7-32.2,115-40.2l.2.4c-15.4,7.5-33,14.9-51.1,21.4-21.4,7.7-43,14.1-64.1,18.8-39.9,9.1-82,9.7-119,10.3-4.4,0-8.6.1-12.7.2-34.6.6-64.9,9.5-94.2,18l-2,.6c-20.9,6.1-40,13.1-58.4,21.4-13.1,5.9-26,12.6-38.4,19.8-30,17.6-60.3,41.4-87.1,62.4-8.8,6.9-18.7,14.7-28.5,22.1-21.5,16.3-39.7,28.6-57.4,38.8-17.6,10.1-35.4,18.4-52.9,24.7-18.5,6.7-36.7,11.1-54.2,13.3-25.4,3.1-49.2,1.7-74.3.3-16-.9-32.5-1.9-49.5-1.6-48.1,1-100,13-148.2,33.4-25.5,10.8-50,24-72.4,39.2l-.3-.4c16.3-11.1,33.8-21.2,52.2-30.1,6.6-3.2,13.4-6.3,20.2-9.2Z"/>
          <path class="cls-1" d="M224,293.9c12.5-5.3,25.3-10,38.3-14,38.3-11.8,77.5-17.6,113.5-16.7,17.5.5,34.5,2.4,51,4.3,24.9,2.8,48.4,5.5,73.8,3.7,34.6-2.5,71.2-14,108.6-34.2,18.2-9.8,37.2-22.1,58.2-37.6,10.3-7.5,20.2-15.2,28.7-21.8,3.4-2.6,6.7-5.2,10.1-7.9,24.9-19.4,50.6-39.4,76.3-55.7,12.2-7.7,24.5-14.8,37.8-21.7,18.9-9.7,37.8-18,57.9-25.4l1.5-.6c29.4-10.9,59.9-22.1,95-24.7,8.4-.6,17.1-1.1,26.4-1.7,31.1-1.8,66.4-3.9,99.5-10.9,44.1-9.3,85-23,112-32.5v.4c-26.8,9.5-67.7,23.2-111.9,32.5-33.1,7.1-68.4,9.1-99.5,11-9.2.5-17.9,1-26.4,1.7-35.1,2.6-65.5,13.8-94.9,24.7l-1.5.6c-20.1,7.4-39,15.7-57.9,25.4-13.2,6.9-25.6,13.9-37.8,21.6-25.7,16.3-51.4,36.3-76.3,55.6-3.4,2.6-6.8,5.3-10.1,7.9-8.4,6.5-18.4,14.2-28.7,21.8-21,15.5-40.1,27.8-58.3,37.6-18,9.7-36.1,17.5-53.8,23.2-18.8,6-37.3,9.8-55,11.1-25.4,1.9-48.9-.8-73.9-3.7-16.5-1.9-33.5-3.8-51-4.3-74.1-1.9-156.9,24-221.4,69.1l-.3-.4c16.1-11.3,33.6-21.5,52-30.4,5.8-2.8,11.8-5.5,17.7-8Z"/>
          <path class="cls-1" d="M226.1,286.2c13.1-5.6,26.7-10.4,40.4-14.4,38.6-11.3,78.2-15.9,114.3-13.4,18,1.3,35.4,4.3,52.3,7.1,23.7,4,48.2,8.2,73.6,7.5,35-.9,72.2-11.2,110.4-30.4,18.9-9.6,38.2-21.5,59.1-36.4,8.6-6.2,17.8-13,28.9-21.5,7.4-5.7,15-11.6,22.3-17.3,20.8-16.2,42.2-32.9,63.4-47.3,11.9-8.1,24.4-16,37.2-23.5,18.9-10.9,38.2-20.9,57.4-29.5,29.9-13.4,60.8-27.2,96.7-31.9,12.6-1.6,25.9-2.9,40.1-4.3,26.3-2.6,53.5-5.2,80-10.4,26-5.1,50.9-11.1,72.9-16.4,13.1-3.1,25.4-6.1,36.1-8.4v.4c-10.6,2.3-22.9,5.3-36,8.4-22,5.3-46.9,11.3-72.9,16.4-26.5,5.2-53.7,7.9-80,10.4-14.1,1.4-27.5,2.7-40.1,4.3-35.9,4.7-66.8,18.5-96.6,31.9-19.2,8.6-38.5,18.5-57.4,29.4-12.7,7.4-25.2,15.3-37.1,23.4-21.2,14.4-42.6,31.2-63.4,47.3-7.3,5.7-14.9,11.6-22.3,17.3-11.1,8.5-20.2,15.3-28.9,21.5-20.9,14.9-40.2,26.9-59.1,36.4-18.3,9.3-36.8,16.5-54.7,21.6-19.1,5.4-37.9,8.4-55.8,8.9-25.4.7-50-3.5-73.7-7.5-16.9-2.9-34.3-5.8-52.3-7.1-50.4-3.6-104.5,6.4-154.2,27.5-24,10.2-47,23-68,38l-.2-.3c20.5-14.7,43.4-27.5,67.7-37.8Z"/>
          <path class="cls-1" d="M228.3,278.5c13.7-5.8,27.9-10.8,42.4-14.8,39-10.7,78.8-14.2,115.2-10,18.4,2.2,36.3,6.2,53.5,10,23.6,5.3,48.1,10.8,73.5,11.3,35.5.6,73.3-8.3,112.1-26.7,19.2-9.1,39.4-21,60-35.2,8.9-6.2,18.5-13.1,29.1-21.2,12.1-9.2,24.3-18.8,36-28.1,16.1-12.7,32.7-25.8,49-37.7,12.3-9,24.6-17.5,36.5-25.3,19.5-12.7,38.1-23.6,56.9-33.5,28-14.7,59.8-31.4,96.9-38.5,17.3-3.3,36.2-5.8,56.2-8.4,19.1-2.5,38.9-5.1,58.1-8.5,8.2-1.5,16.3-2.9,24.1-4.4,30.4-5.6,59.2-10.9,81.8-12.7v.4c-22.6,1.9-51.3,7.1-81.7,12.7-7.9,1.4-16,2.9-24.1,4.4-19.2,3.5-39,6-58.1,8.5-20,2.6-38.8,5.1-56.1,8.4-37.1,7.1-68.8,23.8-96.8,38.5-18.7,9.8-37.3,20.8-56.8,33.5-11.9,7.8-24.2,16.3-36.5,25.2-16.3,11.9-32.9,25-49,37.7-11.8,9.3-23.9,18.9-36,28.1-10.6,8.1-20.1,15-29.1,21.2-20.6,14.3-40.7,26.1-60,35.3-18.6,8.8-37.4,15.5-55.7,20-19.4,4.8-38.5,7-56.6,6.7-25.5-.5-49.9-6-73.6-11.3-17.3-3.9-35.1-7.9-53.5-10-74.2-8.6-159.7,15.2-223,62l-.2-.3c19.9-14.7,42.1-27.3,65.7-37.3Z"/>
          <path class="cls-1" d="M230.8,270.7c14.2-6,29-11,44-15,39.3-10.2,79.4-12.5,116-6.7,18.8,3,36.9,8.1,54.5,12.9,23.6,6.6,48.1,13.3,73.6,15,35.9,2.3,74.2-5.5,113.9-23,19.8-8.8,40.3-20.2,60.8-34.1,9.3-6.2,18.8-13.1,29.3-20.9,17.4-13.1,34.6-27,51.2-40.4,10.9-8.8,22.1-17.9,33.1-26.5,12.8-10,24.5-18.8,35.9-27.1,19.7-14.2,38.1-26.5,56.4-37.5,14.5-8.7,30-17.9,46.4-25.9,17.8-8.7,34.4-15,50.8-19.2,24.3-6.2,52.6-10.5,80-14.6,9.4-1.4,19.1-2.9,28.5-4.4,36.1-5.8,73.5-10.9,102.9-9.4v.3c-29.4-1.5-66.8,3.6-102.9,9.4-9.4,1.5-19.1,3-28.5,4.4-27.4,4.1-55.6,8.4-79.9,14.6-35.5,9.1-65,25.8-97.1,45.1-18.2,11-36.7,23.3-56.3,37.5-11.4,8.2-23.1,17.1-35.9,27-11,8.6-22.2,17.7-33.1,26.5-16.6,13.5-33.8,27.4-51.2,40.4-10.4,7.8-20,14.7-29.3,20.9-20.5,13.8-41,25.3-60.9,34.1-19,8.4-38,14.6-56.6,18.5-19.8,4.1-39.1,5.7-57.4,4.5-25.6-1.7-50.1-8.5-73.7-15-17.6-4.9-35.8-9.9-54.5-12.9-74.9-11.9-160.6,10.5-223.8,58.4l-.2-.3c19.3-14.6,40.9-27.1,64-36.9Z"/>
          <path class="cls-1" d="M233.5,262.8c14.6-6.2,29.9-11.3,45.5-15.1,39.6-9.6,80-10.8,116.8-3.3,19.1,3.9,37.5,10,55.4,15.9,23.7,7.8,48.1,15.9,73.9,18.7,36.2,3.9,75.1-2.6,115.6-19.2,20.4-8.4,41.1-19.5,61.7-32.9,9.5-6.2,19.2-13,29.5-20.6,23.2-17.3,45.8-36.2,67.5-54.5,5.3-4.4,10.7-9,16.1-13.5,13.9-11.5,25.1-20.7,35.3-28.9,20.3-16.2,38.6-29.8,55.8-41.5,27.5-18.7,59.9-39.6,97.4-51.7,32.4-10.5,70.1-16.6,102.6-21.2,41.7-5.8,74.4-6.4,99.9-1.7v.3c-25.6-4.7-58.2-4.1-99.9,1.7-32.5,4.6-70.2,10.7-102.6,21.2-37.4,12.1-69.8,33-97.3,51.7-17.2,11.8-35.5,25.4-55.8,41.5-10.2,8.1-21.4,17.3-35.3,28.8-5.3,4.5-10.8,9.1-16.1,13.5-21.8,18.3-44.3,37.3-67.5,54.6-10.3,7.7-20,14.4-29.5,20.6-20.6,13.4-41.3,24.5-61.7,32.9-19.4,8-38.7,13.7-57.5,16.9-20.1,3.5-39.7,4.3-58.2,2.3-25.8-2.8-50.3-10.9-74-18.8-17.9-5.9-36.3-12-55.4-15.9-75.5-15.3-161.6,5.7-224.6,54.9l-.2-.2c18.8-14.6,39.9-27,62.5-36.6Z"/>
          <path class="cls-1" d="M236.4,254.8c15-6.4,30.7-11.4,46.8-15.1,39.9-9.1,80.6-9.1,117.6,0,19.3,4.8,38.1,11.9,56.2,18.9,23.7,9.1,48.3,18.5,74.3,22.4,36.6,5.5,76.1.3,117.4-15.5,20.9-8,42-18.7,62.6-31.7,9.8-6.2,19.5-12.8,29.7-20.4,29.7-21.8,57.9-47,82.9-69.2,2.1-1.8,4.1-3.6,6.2-5.5,9.4-8.3,19-16.9,28.5-25.2,21.3-18.6,38.9-33.1,55.3-45.6,26.8-20.4,59.4-43.3,97.6-58.3,28.1-11.1,61.6-19.2,96.8-23.3,37.6-4.4,70.2-2.4,96.9,6v.2c-26.7-8.4-59.3-10.4-96.8-6-35.2,4.2-68.7,12.2-96.8,23.3-38.2,15.1-70.7,37.9-97.5,58.3-16.4,12.5-34,27-55.3,45.6-9.5,8.3-19.2,16.9-28.5,25.2-2,1.8-4.1,3.6-6.2,5.5-24.9,22.2-53.2,47.3-82.9,69.2-10.2,7.5-19.9,14.2-29.7,20.4-20.6,13-41.7,23.7-62.6,31.7-19.7,7.5-39.4,12.7-58.4,15.4-20.4,2.9-40.3,2.9-59.1,0-26-3.9-50.6-13.3-74.3-22.4-18.1-6.9-36.8-14.1-56.1-18.9-52.9-13-112.4-6.8-164.7,15.3-21.9,9.3-42.5,21.3-60.7,36v-.2c18.2-14.7,38.8-26.9,61.1-36.3Z"/>
          <path class="cls-1" d="M239.4,246.7c15.3-6.5,31.4-11.6,48-15.1,40.3-8.5,81.2-7.3,118.4,3.4,19.6,5.6,38.5,13.9,56.9,21.9,23.8,10.4,48.5,21.1,74.7,26.1,55.8,10.7,120.6-4.3,182.6-42.2,49.1-30.1,91.3-70.5,132.2-109.5,4.6-4.4,9.3-8.9,13.9-13.3,45-42.7,93.8-86.8,152.6-114.6,3.5-1.7,7.1-3.3,10.7-4.8,26.9-11.4,55.1-18.6,82.2-20.9,16.3-1.4,32.2-1,47.3,1.2,15.9,2.3,30.9,6.5,44.8,12.7v.2c-51.7-22.9-120.7-18.5-184.8,11.8-58.7,27.7-107.6,71.8-152.5,114.5-4.7,4.4-9.4,8.9-13.9,13.3-40.9,39-83.1,79.4-132.2,109.5-14,8.6-28.4,16.1-42.9,22.4-15.2,6.6-30.6,11.9-45.7,15.7-33.1,8.4-64.7,9.7-94.1,4.1-26.2-5-50.9-15.8-74.7-26.1-18.3-8-37.3-16.2-56.8-21.8-75.6-21.8-164.4-3-226.2,47.8h-.1c17.9-14.8,38.1-27,60-36.3Z"/>
        </g>
      </g>
      <rect class="cls-2" x="906.2" y="208.8" width="927.7" height="556.6" transform="translate(-83.7 516.6) rotate(-20.7)"/>
    </g>
  </g>
</svg>
