<?xml version="1.0" encoding="UTF-8"?>
<svg xmlns="http://www.w3.org/2000/svg" version="1.1" viewBox="0 0 60 60">
  <defs>
    <style>
      .cls-1 {
        fill: #e54f38;
      }
    </style>
  </defs>
  <!-- Generator: Adobe Illustrator 28.6.0, SVG Export Plug-In . SVG Version: 1.2.0 Build 709)  -->
  <g>
    <g id="Layer_1">
      <g>
        <path class="cls-1" d="M1.9,21.6h56.2c0,.3,0,.5,0,.7,0,10.4,0,20.8,0,31.1,0,3.5-2.6,6.1-6.1,6.1-14.8,0-29.5,0-44.3,0-3,0-5.2-1.8-5.8-4.5,0-.4,0-.9,0-1.3,0-10.5,0-21,0-31.5,0-.2,0-.3,0-.6ZM10.3,48.2s0,0,0,0c0,.5,0,.9,0,1.4,0,1.7,1.1,2.8,2.8,2.9.9,0,1.9,0,2.8,0,1.6,0,2.7-1.2,2.8-2.8,0-1,0-1.9,0-2.9,0-1.6-1.2-2.7-2.8-2.8-1,0-1.9,0-2.9,0-1.5,0-2.6,1.2-2.7,2.6,0,.5,0,1,0,1.5ZM30,44.1s0,0,0,0c-.5,0-.9,0-1.4,0-1.6,0-2.8,1.2-2.8,2.8,0,.9,0,1.8,0,2.7,0,1.6,1.1,2.8,2.7,2.9,1,0,2,0,3,0,1.5,0,2.7-1.2,2.7-2.7,0-1,0-2.1,0-3.1,0-1.4-1.2-2.6-2.6-2.6-.5,0-1.1,0-1.6,0ZM49.6,32.8s0,0,0,0c0-.5,0-.9,0-1.4,0-1.6-1.1-2.8-2.7-2.9-1,0-1.9,0-2.9,0-1.6,0-2.7,1.2-2.8,2.8,0,1,0,1.9,0,2.9,0,1.6,1.2,2.7,2.9,2.7,1,0,2,0,3,0,1.4,0,2.5-1.2,2.6-2.6,0-.5,0-1.1,0-1.6ZM30,37s0,0,0,0c.5,0,1,0,1.4,0,1.6,0,2.7-1.2,2.8-2.8,0-.9,0-1.8,0-2.7,0-1.6-1.1-2.8-2.7-2.9-1,0-2,0-3,0-1.5,0-2.7,1.2-2.7,2.7,0,1,0,2.1,0,3.1,0,1.4,1.2,2.6,2.6,2.6.5,0,1.1,0,1.6,0ZM14.5,37c.5,0,.9,0,1.4,0,1.7,0,2.8-1.1,2.9-2.8,0-.9,0-1.9,0-2.8,0-1.6-1.2-2.7-2.8-2.8-.9,0-1.9,0-2.8,0-1.6,0-2.7,1.2-2.8,2.8,0,.9,0,1.8,0,2.8,0,1.7,1.2,2.8,2.8,2.8.4,0,.9,0,1.3,0ZM45.5,44.1s0,0,0,0c-.5,0-.9,0-1.4,0-1.7,0-2.8,1.1-2.9,2.8,0,.9,0,1.8,0,2.8,0,1.6,1.2,2.8,2.8,2.8.9,0,1.9,0,2.8,0,1.7,0,2.8-1.2,2.8-2.9,0-1,0-1.9,0-2.9,0-1.4-1.2-2.6-2.6-2.6-.5,0-1,0-1.5,0Z"/>
        <path class="cls-1" d="M39.9,4.7c-.2,2.2.2,4.2,1.9,5.6,1.1.9,2.3,1.4,3.7,1.3,1.2,0,2.2-.3,3.2-1,1-.7,1.7-1.5,2-2.7.3-1.1.4-2.2.5-3.3,3.8-.6,6.8,1.9,6.9,5.8,0,2.5,0,5,0,7.5,0,.2,0,.4,0,.6H1.9c0-.5,0-.9,0-1.3,0-2.2,0-4.4,0-6.7-.1-3.5,2.6-6.2,6.1-6,.3,0,.6,0,1,0,0,.5,0,1,0,1.4,0,2.9,2.2,5.3,5,5.6,3,.3,5.6-1.6,6.1-4.6.1-.8.1-1.6.1-2.4h19.7Z"/>
        <path class="cls-1" d="M17.3,4.7c0,.5,0,1,0,1.5,0,1.4-1.2,2.6-2.6,2.7-1.5.1-2.8-.9-2.9-2.3-.1-1.3-.1-2.5,0-3.8.1-1.4,1.5-2.4,2.9-2.3,1.4,0,2.5,1.2,2.6,2.6,0,.5,0,1.1,0,1.6Z"/>
        <path class="cls-1" d="M42.6,4.7c0-.5,0-1,0-1.5,0-1.4,1.2-2.6,2.6-2.7,1.5-.1,2.8.9,3,2.3.1,1.3.1,2.5,0,3.8-.1,1.5-1.5,2.4-3,2.3-1.4-.1-2.5-1.3-2.6-2.7,0-.5,0-1,0-1.5Z"/>
      </g>
    </g>
  </g>
</svg>