<?xml version="1.0" encoding="UTF-8"?>
<svg xmlns="http://www.w3.org/2000/svg" version="1.1" viewBox="0 0 60 60">
  <defs>
    <style>
      .cls-1 {
        fill: #e54f38;
      }
    </style>
  </defs>
  <!-- Generator: Adobe Illustrator 28.6.0, SVG Export Plug-In . SVG Version: 1.2.0 Build 709)  -->
  <g>
    <g id="Layer_1">
      <path class="cls-1" d="M60,52.4c0,.9-.2,1.8-.2,2.7,0,.8,0,1.5-.1,2.3,0,1.3-1.1,2.3-2.3,2.3-1.4,0-2.8.1-4.1.2-.3,0-.5,0-.8.1h-1.8c-1.3-.3-2.2-1-3.2-1.9-.6-.5-.8-1.1-.9-1.8,0-.9-.2-1.9-.4-2.8-.2-1.1-1-2-2.2-2.1-.5,0-1,0-1.5,0-2.3.2-4.1-1.2-4.4-3.4,0-.6,0-1.2,0-1.9,0-1.6-.9-2.7-2.5-2.8-.9,0-1.7-.2-2.6-.3-.7,0-1.2-.3-1.7-.9-1.2-1.3-2.3-2.6-3.5-3.9-.3-.3-.5-.4-.8-.2-3.5,1.4-7,1.7-10.7,1.1C5.7,37.3-1.6,27,.3,16.5,2.2,5.5,12.4-1.6,23.3.3c12.1,2.2,19.3,15,14.9,26.4-.2.5-.2.8.3,1.2,7,6.1,13.6,12.7,19.8,19.7.8.9,1.5,1.8,1.7,3,0,.6,0,1.2,0,1.8ZM20.2,14.8c0-3-2.4-5.5-5.5-5.5-3,0-5.4,2.4-5.4,5.4,0,3,2.4,5.5,5.5,5.5,3,0,5.4-2.4,5.4-5.4Z"/>
    </g>
  </g>
</svg>
