<?xml version="1.0" encoding="UTF-8"?>
<svg xmlns="http://www.w3.org/2000/svg" version="1.1" viewBox="0 0 60 60">
  <defs>
    <style>
      .cls-1 {
        fill: #e54f38;
      }
    </style>
  </defs>
  <!-- Generator: Adobe Illustrator 28.6.0, SVG Export Plug-In . SVG Version: 1.2.0 Build 709)  -->
  <g>
    <g id="Layer_1">
      <g>
        <path class="cls-1" d="M59.9,20.3v32.7s0,0,0,0c-.8,3.4-2.9,5-6.3,5-12.4,0-24.7,0-37.1,0s-.5,0-.7,0V20.2h.7c14.3,0,28.5,0,42.8,0,.2,0,.5,0,.7,0ZM37.8,32c1.7,0,3.4,0,5.1,0,2.4,0,4.8,0,7.1,0,1.3,0,2.1-.9,2.1-2,0-1.1-.9-1.9-2.2-1.9-7.1,0-14.2,0-21.3,0-1,0-2.1,0-3.1,0-1,0-1.7.6-1.9,1.5-.3,1.3.6,2.4,2.1,2.5,4.1,0,8.1,0,12.2,0ZM37.8,39.8c4,0,7.9,0,11.9,0,.3,0,.5,0,.8,0,.9-.1,1.6-.9,1.7-1.8,0-1.2-.8-2-2.2-2-8.1,0-16.2,0-24.2,0-.1,0-.3,0-.4,0-1.3.1-2.1,1.4-1.7,2.6.3.8,1,1.3,2.1,1.3,4,0,8.1,0,12.1,0ZM37.8,47.6c2.2,0,4.4,0,6.7,0,1.9,0,3.8,0,5.7,0,1.3,0,2.1-1.1,1.9-2.3-.2-1-1-1.6-2.1-1.6-8.1,0-16.2,0-24.2,0-.1,0-.3,0-.4,0-.8,0-1.5.7-1.7,1.4-.3,1.3.6,2.4,2,2.4,4.1,0,8.1,0,12.2,0Z"/>
        <path class="cls-1" d="M59.9,7v9.3c0,0-.2,0-.2,0-19.7,0-39.4,0-59.1,0-.2,0-.3,0-.5,0,0-3,0-6,0-9,0-.8.4-1.7.8-2.4C2.1,2.9,3.9,2,6.3,2c15.8,0,31.6,0,47.4,0,.2,0,.4,0,.6,0,2.4,0,4.5,1.6,5.3,3.9.1.4.2.8.3,1.2ZM15.7,9.1c0,1.1.9,2,2,2,1.1,0,1.9-.9,1.9-1.9,0-1.1-.9-2-2-2-1.1,0-1.9.9-1.9,1.9ZM27.4,9.2c0-1-.8-1.9-1.9-2-1.1,0-2,.9-2,1.9,0,1.1.8,1.9,1.9,2,1.1,0,2-.9,2-1.9ZM11.8,9.1c0-1.1-.9-2-2-2-1.1,0-1.9.9-1.9,2,0,1.1.9,2,2,2,1.1,0,1.9-.9,1.9-2Z"/>
        <path class="cls-1" d="M0,20.3h11.7v37.7c0,0-.2,0-.3,0-1.9,0-3.9,0-5.8,0-3,0-5.4-2.6-5.5-5.6,0-.4,0-.7,0-1.1,0-10.1,0-20.2,0-30.3,0-.2,0-.5,0-.7Z"/>
      </g>
    </g>
  </g>
</svg>
