<?xml version="1.0" encoding="UTF-8"?>
<svg xmlns="http://www.w3.org/2000/svg" version="1.1" viewBox="0 0 60 60">
  <defs>
    <style>
      .cls-1 {
        fill: #e54f38;
      }
    </style>
  </defs>
  <!-- Generator: Adobe Illustrator 28.6.0, SVG Export Plug-In . SVG Version: 1.2.0 Build 709)  -->
  <g>
    <g id="Layer_1">
      <g>
        <path class="cls-1" d="M57.5,1.4c.3,0,.6,0,.9,0,1.3.7,1.5,1.2,1.3,2.6-.2,1.6-.5,3.3-.7,4.9-.8,5.1-1.5,10.2-2.3,15.3-.8,5.1-1.5,10.2-2.3,15.3-.5,3.3-1,6.6-1.5,10,0,.6-.3,1-.8,1.4-.7.5-1.3.3-2.1,0-6.6-2.3-13.2-4.5-19.7-6.8-1.9-.7-3.9-1.3-5.9-2,8.4-10.1,16.7-20.1,25-30.2-.2,0-.3,0-.4.1-10.5,9-21,18-31.6,27.1-.3.3-.6.4-1.1.2-4.8-1.7-9.6-3.3-14.3-4.9-.8-.3-1.5-.7-1.9-1.5v-.9c.3-.6.7-1.1,1.3-1.4,10.1-5.3,20.3-10.6,30.4-15.9,8.5-4.5,17.1-8.9,25.6-13.4Z"/>
        <path class="cls-1" d="M22,45.2c3.3,1.1,6.6,2.3,10,3.4-.6.8-1.1,1.5-1.7,2.3-1.7,2.3-3.3,4.5-5,6.8-.7,1-1.9,1.2-2.7.5-.3-.3-.7-.8-.7-1.3,0-3.8,0-7.7,0-11.5,0,0,0,0,0-.2Z"/>
      </g>
    </g>
  </g>
</svg>
